<?xml version="1.0" encoding="UTF-8" standalone="no"?>
<!-- Created with Inkscape (http://www.inkscape.org/) -->

<svg
   version="1.1"
   id="svg1"
   width="265.23599"
   height="173.85867"
   viewBox="0 0 265.23599 173.85867"
   xmlns="http://www.w3.org/2000/svg"
   xmlns:svg="http://www.w3.org/2000/svg">
  <defs
     id="defs1">
    <clipPath
       clipPathUnits="userSpaceOnUse"
       id="clipPath2">
      <path
         d="M -97.80447,-65.19768 V 65.1977 H 97.80449 V -65.19768 Z"
         id="path2" />
    </clipPath>
    <clipPath
       clipPathUnits="userSpaceOnUse"
       id="clipPath4">
      <path
         d="M -97.80447,-65.19768 V 65.1977 H 97.80449 V -65.19768 Z"
         id="path4" />
    </clipPath>
    <clipPath
       clipPathUnits="userSpaceOnUse"
       id="clipPath6">
      <path
         d="M -97.80447,-65.19768 V 65.1977 H 97.80449 V -65.19768 Z"
         id="path6" />
    </clipPath>
    <clipPath
       clipPathUnits="userSpaceOnUse"
       id="clipPath8">
      <path
         d="M -97.80447,-65.19768 V 65.1977 H 97.80449 V -65.19768 Z"
         id="path8" />
    </clipPath>
    <clipPath
       clipPathUnits="userSpaceOnUse"
       id="clipPath10">
      <path
         d="M -97.80447,-65.19768 V 65.1977 H 97.80449 V -65.19768 Z"
         id="path10" />
    </clipPath>
    <clipPath
       clipPathUnits="userSpaceOnUse"
       id="clipPath12">
      <path
         d="M -97.80447,-65.19768 V 65.1977 H 97.80449 V -65.19768 Z"
         id="path12" />
    </clipPath>
    <clipPath
       clipPathUnits="userSpaceOnUse"
       id="clipPath14">
      <path
         d="M -97.80447,-65.19768 V 65.1977 H 97.80449 V -65.19768 Z"
         id="path14" />
    </clipPath>
    <clipPath
       clipPathUnits="userSpaceOnUse"
       id="clipPath16">
      <path
         d="M -97.80447,-65.19768 V 65.1977 H 97.80449 V -65.19768 Z"
         id="path16" />
    </clipPath>
    <clipPath
       clipPathUnits="userSpaceOnUse"
       id="clipPath18">
      <path
         d="M -97.80447,-65.19768 V 65.1977 H 97.80449 V -65.19768 Z"
         id="path18" />
    </clipPath>
    <clipPath
       clipPathUnits="userSpaceOnUse"
       id="clipPath20">
      <path
         d="M -97.80447,-65.19768 V 65.1977 H 97.80449 V -65.19768 Z"
         id="path20" />
    </clipPath>
    <clipPath
       clipPathUnits="userSpaceOnUse"
       id="clipPath22">
      <path
         d="M -97.80447,-65.19768 V 65.1977 H 97.80449 V -65.19768 Z"
         id="path22" />
    </clipPath>
    <clipPath
       clipPathUnits="userSpaceOnUse"
       id="clipPath24">
      <path
         d="M -97.80447,-65.19768 V 65.1977 H 97.80449 V -65.19768 Z"
         id="path24" />
    </clipPath>
    <clipPath
       clipPathUnits="userSpaceOnUse"
       id="clipPath26">
      <path
         d="M -97.80447,-65.19768 V 65.1977 H 97.80449 V -65.19768 Z"
         id="path26" />
    </clipPath>
    <clipPath
       clipPathUnits="userSpaceOnUse"
       id="clipPath28">
      <path
         d="M -97.80447,-65.19768 V 65.1977 H 97.80449 V -65.19768 Z"
         id="path28" />
    </clipPath>
    <clipPath
       clipPathUnits="userSpaceOnUse"
       id="clipPath30">
      <path
         d="M -97.80447,-65.19768 V 65.1977 H 97.80449 V -65.19768 Z"
         id="path30" />
    </clipPath>
    <clipPath
       clipPathUnits="userSpaceOnUse"
       id="clipPath32">
      <path
         d="M -97.80447,-65.19768 V 65.1977 H 97.80449 V -65.19768 Z"
         id="path32" />
    </clipPath>
    <clipPath
       clipPathUnits="userSpaceOnUse"
       id="clipPath34">
      <path
         d="M -97.80447,-65.19768 V 65.1977 H 97.80449 V -65.19768 Z"
         id="path34" />
    </clipPath>
    <clipPath
       clipPathUnits="userSpaceOnUse"
       id="clipPath36">
      <path
         d="M -97.80447,-65.19768 V 65.1977 H 97.80449 V -65.19768 Z"
         id="path36" />
    </clipPath>
    <clipPath
       clipPathUnits="userSpaceOnUse"
       id="clipPath38">
      <path
         d="M -97.80447,-65.19768 V 65.1977 H 97.80449 V -65.19768 Z"
         id="path38" />
    </clipPath>
    <clipPath
       clipPathUnits="userSpaceOnUse"
       id="clipPath40">
      <path
         d="M -97.80447,-65.19768 V 65.1977 H 97.80449 V -65.19768 Z"
         id="path40" />
    </clipPath>
    <clipPath
       clipPathUnits="userSpaceOnUse"
       id="clipPath42">
      <path
         d="M -97.80447,-65.19768 V 65.1977 H 97.80449 V -65.19768 Z"
         id="path42" />
    </clipPath>
    <clipPath
       clipPathUnits="userSpaceOnUse"
       id="clipPath44">
      <path
         d="M -97.80447,-65.19768 V 65.1977 H 97.80449 V -65.19768 Z"
         id="path44" />
    </clipPath>
    <clipPath
       clipPathUnits="userSpaceOnUse"
       id="clipPath46">
      <path
         d="M -97.80447,-65.19768 V 65.1977 H 97.80449 V -65.19768 Z"
         id="path46" />
    </clipPath>
    <clipPath
       clipPathUnits="userSpaceOnUse"
       id="clipPath48">
      <path
         d="M -97.80447,-65.19768 V 65.1977 H 97.80449 V -65.19768 Z"
         id="path48" />
    </clipPath>
    <clipPath
       clipPathUnits="userSpaceOnUse"
       id="clipPath50">
      <path
         d="M -97.80447,-65.19768 V 65.1977 H 97.80449 V -65.19768 Z"
         id="path50" />
    </clipPath>
    <clipPath
       clipPathUnits="userSpaceOnUse"
       id="clipPath52">
      <path
         d="M -97.80447,-65.19768 V 65.1977 H 97.80449 V -65.19768 Z"
         id="path52" />
    </clipPath>
    <clipPath
       clipPathUnits="userSpaceOnUse"
       id="clipPath54">
      <path
         d="M -97.80447,-65.19768 V 65.1977 H 97.80449 V -65.19768 Z"
         id="path54" />
    </clipPath>
    <clipPath
       clipPathUnits="userSpaceOnUse"
       id="clipPath56">
      <path
         d="M -97.80447,-65.19768 V 65.1977 H 97.80449 V -65.19768 Z"
         id="path56" />
    </clipPath>
    <clipPath
       clipPathUnits="userSpaceOnUse"
       id="clipPath58">
      <path
         d="M 5.56807,6.63428 C 5.51035,6.63066 5.45238,6.62885 5.39397,6.62885 c -1.27436,0 -4.23435,0.65383 -5.37532,1.6341 -1.19509,-0.90553 -4.20394,-1.6341 -5.45766,-1.6341 -0.05882,0 -0.11691,0.00718 -0.17449,0.01777 -0.00291,-0.28561 0.0119,-0.58168 0.02965,-0.85094 0.06635,-1.00643 0.24288,-2.01644 0.51087,-2.98841 0.84363,-3.05884 2.57028,-5.65831 5.04612,-7.63019 2.47788,1.97352 4.20662,4.57545 5.0521,7.63655 0.26842,0.97174 0.44549,1.98167 0.51246,2.98801 0.01568,0.28173 0.03138,0.62674 0.03037,0.83264 z"
         id="path58" />
    </clipPath>
    <clipPath
       clipPathUnits="userSpaceOnUse"
       id="clipPath60">
      <path
         d="M 5.56807,6.63428 C 5.51035,6.63066 5.45238,6.62885 5.39397,6.62885 c -1.27436,0 -4.23435,0.65383 -5.37532,1.6341 -1.19509,-0.90553 -4.20394,-1.6341 -5.45766,-1.6341 -0.05882,0 -0.11691,0.00718 -0.17449,0.01777 -0.00291,-0.28561 0.0119,-0.58168 0.02965,-0.85094 0.06635,-1.00643 0.24288,-2.01644 0.51087,-2.98841 0.84363,-3.05884 2.57028,-5.65831 5.04612,-7.63019 2.47788,1.97352 4.20662,4.57545 5.0521,7.63655 0.26842,0.97174 0.44549,1.98167 0.51246,2.98801 0.01568,0.28173 0.03138,0.62674 0.03037,0.83264 z"
         id="path60" />
    </clipPath>
    <clipPath
       clipPathUnits="userSpaceOnUse"
       id="clipPath62">
      <path
         d="M 5.56807,6.63428 C 5.51035,6.63066 5.45238,6.62885 5.39397,6.62885 c -1.27436,0 -4.23435,0.65383 -5.37532,1.6341 -1.19509,-0.90553 -4.20394,-1.6341 -5.45766,-1.6341 -0.05882,0 -0.11691,0.00718 -0.17449,0.01777 -0.00291,-0.28561 0.0119,-0.58168 0.02965,-0.85094 0.06635,-1.00643 0.24288,-2.01644 0.51087,-2.98841 0.84363,-3.05884 2.57028,-5.65831 5.04612,-7.63019 2.47788,1.97352 4.20662,4.57545 5.0521,7.63655 0.26842,0.97174 0.44549,1.98167 0.51246,2.98801 0.01568,0.28173 0.03138,0.62674 0.03037,0.83264 z"
         id="path62" />
    </clipPath>
  </defs>
  <g
     id="g1">
    <path
       id="path1"
       d="M -97.80447,21.73123 V 65.1977 H 97.80449 V 21.73123 Z"
       style="fill:#c8102e;fill-opacity:1;fill-rule:nonzero;stroke:none"
       transform="matrix(1.3333333,0,0,-1.3333333,130.404,86.929333)"
       clip-path="url(#clipPath2)" />
    <path
       id="path3"
       d="M -97.80447,-21.73322 V 21.73123 H 97.80449 v -43.46445 z"
       style="fill:#ffffff;fill-opacity:1;fill-rule:nonzero;stroke:none"
       transform="matrix(1.3333333,0,0,-1.3333333,130.404,86.929333)"
       clip-path="url(#clipPath4)" />
    <path
       id="path5"
       d="m -97.80447,-65.19768 v 43.46446 H 97.80449 v -43.46446 z"
       style="fill:#000000;fill-opacity:1;fill-rule:nonzero;stroke:none"
       transform="matrix(1.3333333,0,0,-1.3333333,130.404,86.929333)"
       clip-path="url(#clipPath6)" />
    <path
       id="path7"
       d="m 0.14442,-0.42192 14.06475,-13.05663 -1.00131,23.71293 c -0.1471,3.59384 -3.27016,2.76932 -5.53879,1.4729 -2.29816,-1.4729 -4.92003,-1.4729 -7.6899,-0.50042 -2.76927,-0.97244 -5.39136,-0.97244 -7.68956,0.50046 -2.26837,1.29628 -5.3911,2.12094 -5.53854,-1.4729 l -1.00191,-23.71297 z"
       style="fill:#ffffff;fill-opacity:1;fill-rule:nonzero;stroke:#c5a900;stroke-width:0.39195;stroke-linecap:butt;stroke-linejoin:round;stroke-miterlimit:10;stroke-dasharray:none;stroke-opacity:1"
       transform="matrix(1.3333333,0,0,-1.3333333,130.404,86.929333)"
       clip-path="url(#clipPath8)" />
    <path
       id="path9"
       d="m -11.63531,11.06252 -0.97213,-23.06479 -1.64998,-1.47196 1.00191,23.71166 c 0.47107,0.32403 1.29636,0.82489 1.6202,0.82489 z m 1.97546,-1.65101 -0.82489,-19.29356 -1.64937,-1.68797 1.0015,22.27832 c 0.32425,-0.32385 1.29657,-1.11916 1.47276,-1.29576 z M -7.86305,7.93915 -8.51093,-8.15239 -9.83644,-9.44815 -9.01137,8.91129 C -8.68814,8.58723 -8.04005,8.11575 -7.86305,7.93915 Z M -5.9184,7.11365 -6.56647,-6.60098 -7.86284,-7.65236 -7.21477,7.6143 C -6.8905,7.46707 -6.24243,7.11365 -5.9184,7.11365 Z m 1.79682,0 -0.4717,-11.42909 -1.32552,-1.29638 0.50104,12.57802 c 0.32343,0 1.14853,0 1.29618,0.14745 z"
       style="fill:#c5a900;fill-opacity:1;fill-rule:nonzero;stroke:none"
       transform="matrix(1.3333333,0,0,-1.3333333,130.404,86.929333)"
       clip-path="url(#clipPath10)" />
    <path
       id="path11"
       d="m 11.59152,11.06252 0.97212,-23.06479 1.64997,-1.47196 -1.00189,23.71166 c -0.47107,0.32403 -1.29638,0.82489 -1.6202,0.82489 z M 9.61604,9.41151 10.44093,-9.88205 12.0903,-11.57002 11.08882,10.7083 C 10.76457,10.38445 9.79224,9.58914 9.61604,9.41254 Z M 7.81924,7.93915 8.46713,-8.15239 9.79265,-9.44815 8.96756,8.91129 C 8.64433,8.58723 7.99626,8.11575 7.81924,7.93915 Z M 5.8746,7.11365 6.52267,-6.60098 7.81905,-7.65236 7.17096,7.6143 C 6.84671,7.46707 6.19862,7.11365 5.8746,7.11365 Z m -1.79681,0 L 4.54947,-4.31544 5.875,-5.61182 5.37395,6.9662 c -0.32341,0 -1.14852,0 -1.29616,0.14745 z"
       style="fill:#c5a900;fill-opacity:1;fill-rule:nonzero;stroke:none"
       transform="matrix(1.3333333,0,0,-1.3333333,130.404,86.929333)"
       clip-path="url(#clipPath12)" />
    <path
       id="path13"
       d="m 0.62704,-3.02179 1.97408,-8.98558 -0.64847,-0.64793 -0.67752,0.50084 -1.11964,8.01275 0.47145,-8.01275 -0.6483,-0.82468 -0.64815,0.82468 0.47151,8.01275 -1.1193,-8.01275 -0.6782,-0.50084 -0.6478,0.64793 1.97374,8.98563 h 1.2966 z"
       style="fill:#c5a900;fill-opacity:1;fill-rule:nonzero;stroke:#c5a900;stroke-width:0.39195;stroke-linecap:butt;stroke-linejoin:miter;stroke-miterlimit:10;stroke-dasharray:none;stroke-opacity:1"
       transform="matrix(1.3333333,0,0,-1.3333333,130.404,86.929333)"
       clip-path="url(#clipPath14)" />
    <path
       id="path15"
       d="m -4.44122,0.9252 -3.91829,-13.9039 5.39172,-0.82506 2.29758,10.45776 -3.77106,4.27125 z"
       style="fill:#ffffff;fill-opacity:1;fill-rule:nonzero;stroke:#c5a900;stroke-width:0.39195;stroke-linecap:butt;stroke-linejoin:round;stroke-miterlimit:10;stroke-dasharray:none;stroke-opacity:1"
       transform="matrix(1.3333333,0,0,-1.3333333,130.404,86.929333)"
       clip-path="url(#clipPath16)" />
    <path
       id="path17"
       d="m -5.73705,-3.81859 0.47139,-1.14856 2.54751,2.43314"
       style="fill:none;stroke:#c5a900;stroke-width:0.39195;stroke-linecap:butt;stroke-linejoin:round;stroke-miterlimit:10;stroke-dasharray:none;stroke-opacity:1"
       transform="matrix(1.3333333,0,0,-1.3333333,130.404,86.929333)"
       clip-path="url(#clipPath18)" />
    <path
       id="path19"
       d="m -3.973,-0.93947 0.53304,-4.99969 1.62038,2.121 m -0.64813,-0.82391 0.88508,-3.05475 m 0.34705,1.12231 -1.79027,-2.71919 m 0.55838,-2.71405 -0.57298,2.71031 -0.50021,2.75658 -1.19941,-1.62416 -0.52601,1.87265 -1.67874,-1.72188 0.85377,-3.13196 1.17828,1.93756 0.64805,-1.974 1.20962,1.88156"
       style="fill:none;stroke:#c5a900;stroke-width:0.39195;stroke-linecap:butt;stroke-linejoin:round;stroke-miterlimit:10;stroke-dasharray:none;stroke-opacity:1"
       transform="matrix(1.3333333,0,0,-1.3333333,130.404,86.929333)"
       clip-path="url(#clipPath20)" />
    <path
       id="path21"
       d="m -7.21153,-12.65526 1.08832,1.52863 0.70906,-2.35282 0.97221,1.64954 0.64848,-1.97427"
       style="fill:none;stroke:#c5a900;stroke-width:0.39195;stroke-linecap:butt;stroke-linejoin:round;stroke-miterlimit:10;stroke-dasharray:none;stroke-opacity:1"
       transform="matrix(1.3333333,0,0,-1.3333333,130.404,86.929333)"
       clip-path="url(#clipPath22)" />
    <path
       id="path23"
       d="M 4.39743,0.9252 8.31572,-12.9787 2.92398,-13.80376 0.62642,-3.346 4.39748,0.92525 Z"
       style="fill:#ffffff;fill-opacity:1;fill-rule:nonzero;stroke:#c5a900;stroke-width:0.39195;stroke-linecap:butt;stroke-linejoin:round;stroke-miterlimit:10;stroke-dasharray:none;stroke-opacity:1"
       transform="matrix(1.3333333,0,0,-1.3333333,130.404,86.929333)"
       clip-path="url(#clipPath24)" />
    <path
       id="path25"
       d="M 5.69325,-3.81859 5.22186,-4.96715 2.67436,-2.53401"
       style="fill:none;stroke:#c5a900;stroke-width:0.39195;stroke-linecap:butt;stroke-linejoin:round;stroke-miterlimit:10;stroke-dasharray:none;stroke-opacity:1"
       transform="matrix(1.3333333,0,0,-1.3333333,130.404,86.929333)"
       clip-path="url(#clipPath26)" />
    <path
       id="path27"
       d="m 3.92921,-0.93947 -0.53305,-4.99969 -1.62037,2.121 M 2.42392,-4.64207 1.53883,-7.69682 M 1.19179,-6.57451 2.98206,-9.2937 m -0.55838,-2.71405 0.57298,2.71031 0.50021,2.75658 1.19939,-1.62416 0.52601,1.87265 1.67875,-1.72188 -0.85378,-3.13196 -1.17827,1.93756 -0.64804,-1.974 -1.20963,1.88156"
       style="fill:none;stroke:#c5a900;stroke-width:0.39195;stroke-linecap:butt;stroke-linejoin:round;stroke-miterlimit:10;stroke-dasharray:none;stroke-opacity:1"
       transform="matrix(1.3333333,0,0,-1.3333333,130.404,86.929333)"
       clip-path="url(#clipPath28)" />
    <path
       id="path29"
       d="m 7.16774,-12.65526 -1.08832,1.52863 -0.70907,-2.35282 -0.97222,1.64954 -0.64847,-1.97427"
       style="fill:none;stroke:#c5a900;stroke-width:0.39195;stroke-linecap:butt;stroke-linejoin:round;stroke-miterlimit:10;stroke-dasharray:none;stroke-opacity:1"
       transform="matrix(1.3333333,0,0,-1.3333333,130.404,86.929333)"
       clip-path="url(#clipPath30)" />
    <path
       id="path31"
       d="m -0.02188,-19.19395 c 4.09549,0 8.01398,0.32402 10.31174,0.97219 0.97248,0.17635 0.97248,0.67719 0.97248,1.32567 0.97245,0.32398 0.47127,1.47252 1.14886,1.47252 -0.67759,-0.17711 -0.82468,1.14885 -1.64965,0.97168 0,1.14931 -1.14912,1.2964 -2.12138,0.97293 -1.94467,-0.64844 -5.39171,-0.79581 -8.6621,-0.79581 -3.27017,0.14737 -6.68795,0.14737 -8.66189,0.79581 -0.97222,0.32347 -2.12075,0.17638 -2.12075,-0.97293 -0.82521,0.17712 -0.97244,-1.14885 -1.64987,-0.97172 0.67743,0 0.17649,-1.1485 1.14882,-1.47248 0,-0.64848 0,-1.14932 1.0017,-1.32567 2.26824,-0.64817 6.18712,-0.97219 10.28199,-0.97219 z"
       style="fill:#ffffff;fill-opacity:1;fill-rule:nonzero;stroke:#c5a900;stroke-width:0.6663;stroke-linecap:round;stroke-linejoin:round;stroke-miterlimit:10;stroke-dasharray:none;stroke-opacity:1"
       transform="matrix(1.3333333,0,0,-1.3333333,130.404,86.929333)"
       clip-path="url(#clipPath32)" />
    <path
       id="path33"
       d="m -5.5892,-12.97765 c 1.32548,-0.17688 2.79867,-0.32402 3.94807,-0.17688 0.64757,0 1.11907,-1.11929 -0.17715,-1.2964 -1.14861,-0.14687 -2.94591,0 -3.91831,0.17711 -0.82491,0.14734 -2.62201,0.47121 -3.77119,0.79581 -1.14899,0.50032 -0.32369,1.472 0.32388,1.32499 1.00192,-0.32383 2.29839,-0.64813 3.59485,-0.82467 z m 11.13667,0 c -1.32594,-0.17688 -2.79867,-0.32402 -3.91849,-0.17688 -0.67781,0 -1.14923,-1.11929 0.14728,-1.2964 1.14908,-0.14687 2.94629,0 3.91788,0.17711 0.82535,0.14734 2.62222,0.47121 3.77124,0.79581 1.14932,0.50032 0.32455,1.472 -0.32392,1.32499 -1.00169,-0.32383 -2.29797,-0.64813 -3.59399,-0.82467 z"
       style="fill:#ffffff;fill-opacity:1;fill-rule:nonzero;stroke:#c5a900;stroke-width:0.39195;stroke-linecap:round;stroke-linejoin:round;stroke-miterlimit:10;stroke-dasharray:none;stroke-opacity:1"
       transform="matrix(1.3333333,0,0,-1.3333333,130.404,86.929333)"
       clip-path="url(#clipPath34)" />
    <path
       id="path35"
       d="m -9.65536,-12.33081 c -1.00153,0.17688 -1.47291,-0.97168 -1.1485,-1.61961 0.14709,0.32397 0.82476,0.32397 0.9723,0.64793 0.1762,0.50047 -0.14754,0.50047 0.1762,0.97173 z m 3.91831,-3.01263 c 0,0.64747 0.64779,0.56787 0.64779,1.21604 0,0.32389 -0.1764,0.82496 -0.50042,0.82496 -0.32415,0 -0.64842,-0.32396 -0.64842,-0.64794 -0.14743,-0.64832 0.50105,-0.74568 0.50105,-1.39306 z m 4.66373,1.86471 c 0.97144,0 0.87518,-1.29671 0.40364,-1.94475 0,0.47132 -0.82477,0.64804 -0.82477,0.97168 0,0.50147 0.74463,0.50147 0.42113,0.97307 z m 10.68489,1.14792 c 1.00168,0.17688 1.47328,-0.97168 1.14902,-1.61961 -0.14743,0.32397 -0.82491,0.32397 -0.9722,0.64793 -0.17682,0.50047 0.14743,0.50047 -0.17682,0.97173 z m -3.91826,-3.01263 c 0,0.64747 -0.64755,0.56787 -0.64755,1.21604 0,0.32389 0.1765,0.82496 0.50066,0.82496 0.32387,0 0.64811,-0.32396 0.64811,-0.64794 0.14745,-0.64832 -0.50122,-0.74568 -0.50122,-1.39306 z m -4.6638,1.86471 c -0.97181,0 -0.8754,-1.29671 -0.40401,-1.94475 0,0.47132 0.82468,0.64804 0.82468,0.97168 1.5e-4,0.50147 -0.74463,0.50147 -0.42061,0.97307 z"
       style="fill:#ffffff;fill-opacity:1;fill-rule:nonzero;stroke:#c5a900;stroke-width:0.39195;stroke-linecap:round;stroke-linejoin:round;stroke-miterlimit:10;stroke-dasharray:none;stroke-opacity:1"
       transform="matrix(1.3333333,0,0,-1.3333333,130.404,86.929333)"
       clip-path="url(#clipPath36)" />
    <path
       id="path37"
       d="m -9.33086,-12.65526 c 0.32445,0 0.82506,-0.14738 0.97245,-0.32388 l -0.97341,0.32451 z m 1.61823,-0.50107 c 0.17697,0 0.82519,-0.14711 1.14917,-0.3235 l -1.15003,0.3245 z m 5.89387,-0.64691 c -0.32403,0 -0.97221,0 -1.14856,-0.14685 l 1.14798,0.14787 5.8e-4,-10e-4 z m -1.79693,0 c -0.17635,0.17713 -0.82481,0.17713 -1.1487,0 h 1.14798 z m 12.90486,1.14798 c -0.32401,0 -0.79572,-0.14738 -0.97247,-0.32388 z m -1.62033,-0.50107 c -0.17662,0 -0.82497,-0.14711 -1.14902,-0.3235 l 1.14998,0.3245 z m -5.89382,-0.64691 c 0.32435,0 0.9724,0 1.14902,-0.14685 l -1.14998,0.14787 9.6e-4,-10e-4 z m 1.79688,0 c 0.17662,0.17713 0.82526,0.17713 1.14906,0 H 3.57094 Z"
       style="fill:#ffffff;fill-opacity:1;fill-rule:nonzero;stroke:#c5a900;stroke-width:0.39195;stroke-linecap:round;stroke-linejoin:round;stroke-miterlimit:10;stroke-dasharray:none;stroke-opacity:1"
       transform="matrix(1.3333333,0,0,-1.3333333,130.404,86.929333)"
       clip-path="url(#clipPath38)" />
    <path
       id="path39"
       d="m -9.60399,-15.24487 c -0.10968,0.02097 -0.16725,0.10775 -0.13968,0.21043 0.03365,0.12508 0.13384,0.19663 0.22847,0.16314 0.06021,-0.02126 0.17041,-0.13236 0.17089,-0.17223 5.8e-4,-0.04578 -0.05769,-0.15457 -0.08272,-0.15482 -0.01081,-9e-5 -0.02756,-0.0096 -0.03725,-0.02092 -0.02052,-0.02426 -0.08485,-0.03604 -0.13971,-0.02556 z M 1.6764,-16.04988 c -0.04076,0.01514 -0.10577,0.10651 -0.10568,0.14863 3.8e-4,0.0795 0.11789,0.20905 0.19071,0.20977 0.03599,2.3e-4 0.13451,-0.05094 0.17131,-0.08924 0.06674,-0.06941 0.05218,-0.18333 -0.03168,-0.24804 -0.04126,-0.03188 -0.16434,-0.04341 -0.22459,-0.02108 z m 0.07397,-0.50926 c -0.08631,0.0292 -0.11785,0.07142 -0.1249,0.16705 -0.00726,0.09972 0.00241,0.11522 0.10771,0.17267 l 0.07512,0.04092 0.07113,-0.03172 c 0.0986,-0.04396 0.14239,-0.09134 0.14588,-0.15759 0.00376,-0.07141 -0.04924,-0.14446 -0.13148,-0.18132 -0.07219,-0.03237 -0.07649,-0.03264 -0.14346,-0.01006 z"
       style="fill:#ffffff;fill-opacity:1;fill-rule:nonzero;stroke:none"
       transform="matrix(1.3333333,0,0,-1.3333333,130.404,86.929333)"
       clip-path="url(#clipPath40)" />
    <path
       id="path41"
       d="m -8.69838,-14.3228 c -0.07109,0.0023 -0.16864,-0.06308 -0.22459,-0.0962 -0.13332,-0.0313 -0.28847,-0.11321 -0.41712,-0.02572 -0.12677,0.03917 -0.29536,0.0083 -0.3145,-0.14763 0.03255,-0.13383 0.22009,-0.21032 0.33373,-0.12191 0.08435,0.11038 0.3145,0.17515 0.34012,-0.01284 -0.09383,-0.14216 -0.08316,-0.33038 -0.16042,-0.4813 -0.01259,-0.09401 -0.0517,-0.1833 -0.10268,-0.26313 -0.09491,-0.0095 -0.19587,0.0017 -0.27595,-0.05772 -0.12857,-0.007 -0.25974,-0.07095 -0.33374,-0.1797 -0.08281,-0.11872 -0.16194,-0.23935 -0.18611,-0.38506 0.02202,-0.14886 0.19252,-0.19157 0.32091,-0.19894 0.1369,-0.03772 0.274,-0.08712 0.4107,-0.12839 0.22289,-0.04988 0.43167,-0.13043 0.6546,-0.17964 0.32537,-0.09813 0.667,-0.14322 0.99471,-0.23105 0.03436,-0.0114 0.06652,-0.02132 0.10267,-0.02567 0.13605,-0.02824 0.20697,0.11968 0.21819,0.23102 0.06749,0.23813 0.11899,0.48035 0.18611,0.71878 0.04619,0.0956 0.10196,0.31157 -0.0834,0.26308 -0.10579,-0.06337 -0.19548,-0.15881 -0.3273,-0.16681 -0.17951,-0.01048 -0.07708,-0.19412 -0.00643,-0.26955 0.0156,-0.12062 -0.02254,-0.26471 -0.10267,-0.35939 -0.10675,-0.06769 -0.24059,0.01147 -0.35299,0.03849 -0.11799,-0.002 -0.35389,0.05819 -0.24383,0.21823 0.03906,0.11847 0.04249,0.24809 0.08986,0.36577 0.06025,0.12622 0.06888,0.26393 0.09621,0.39787 -0.07421,0.15964 -0.20096,-0.05252 -0.30158,-0.07057 -0.06942,-0.04821 -0.32972,-0.06864 -0.19258,-0.19251 0.11815,-0.08975 0.02757,-0.24576 0.00641,-0.35941 -0.00755,-0.15815 -0.17202,-0.19592 -0.30161,-0.16044 -0.1289,0.0062 -0.30832,0.10219 -0.19894,0.24388 0.0249,0.11809 0.06611,0.23413 0.08986,0.35298 0.04872,0.14328 0.08979,0.27983 0.1412,0.42354 0.02226,0.12734 0.06798,0.24804 0.12828,0.35939 0.0036,0.14073 0.09815,0.26184 0.09627,0.4043 -0.00957,0.06959 -0.04074,0.09492 -0.08339,0.09625 z m -0.73798,-1.48883 c 0.01674,0.0029 0.02874,3.8e-4 0.04491,-0.0064 0.05125,-0.02183 0.0528,-0.06354 0,-0.10915 -0.02309,-0.01986 -0.0493,-0.03906 -0.05778,-0.03848 -0.09603,0.0083 -0.12437,0.02254 -0.1283,0.05777 -0.00359,0.03107 0.00624,0.03998 0.07057,0.0706 0.03192,0.01523 0.0538,0.02276 0.0706,0.02567 z m -0.21281,-1.03095 c -0.10187,0.09574 -0.08545,0.16564 0.06514,0.27793 0.06448,0.04802 0.10353,0.0426 0.17725,-0.02466 0.11346,-0.10349 0.11799,-0.16896 0.01786,-0.25766 -0.0495,-0.04385 -0.07113,-0.05286 -0.12878,-0.05342 -0.06026,-6.3e-4 -0.07735,0.0069 -0.13147,0.05781 z m 0.62634,-0.18893 c -0.06132,0.01463 -0.11021,0.06093 -0.12817,0.12135 -0.0099,0.03328 -0.00975,0.06876 4e-4,0.10195 0.02629,0.08932 0.0416,0.0981 0.17248,0.09944 0.14681,0.0014 0.17529,-0.02313 0.17668,-0.15238 8.3e-4,-0.07275 -0.00479,-0.08961 -0.04101,-0.1233 -0.04251,-0.03954 -0.12427,-0.06084 -0.18038,-0.047 z m 18.29965,-0.01642 c -0.04661,0.03877 -0.05601,0.05635 -0.05653,0.10575 -6.2e-4,0.08428 0.04797,0.14614 0.15318,0.19381 0.14006,0.06343 0.19713,0.05472 0.24988,-0.03814 0.07012,-0.12351 0.06676,-0.17392 -0.01724,-0.2571 -0.04639,-0.04596 -0.05505,-0.04863 -0.16122,-0.04969 -0.10421,-6.3e-4 -0.11612,0.0021 -0.16807,0.04537 z m -17.46794,-0.23613 c -0.07472,0.01992 -0.11345,0.07602 -0.11439,0.16562 -8.7e-4,0.06859 0.00412,0.07951 0.05203,0.11704 0.0311,0.02432 0.08012,0.04513 0.11881,0.05041 0.05479,0.0075 0.07486,0.0027 0.11895,-0.02824 0.11306,-0.07947 0.13709,-0.15811 0.0716,-0.23442 -0.06975,-0.08123 -0.13581,-0.10009 -0.247,-0.07041 z m 4.50153,-0.20128 c -0.01661,0.02068 -0.05324,0.03289 -0.05702,0.05896 0.00656,0.11394 0.01202,0.2293 0.04835,0.33844 0.01972,0.10741 0.0024,0.21962 0.03987,0.32421 0.03839,0.19038 0.03835,0.38663 0.08257,0.57576 0.00207,0.09741 0.01131,0.19487 0.03955,0.28863 0.03237,0.14821 0.00277,0.30316 0.04643,0.44959 -0.0047,0.05505 0.05864,0.2019 0.11426,0.11488 0.08075,-0.11838 0.18716,-0.21458 0.29181,-0.31114 0.0899,-0.05189 0.00737,-0.12828 -0.05476,-0.15399 -0.08526,-0.03362 -0.10599,-0.12752 -0.09995,-0.2099 -0.01196,-0.08516 -0.0461,-0.16573 -0.04959,-0.25261 -0.01805,-0.12779 -0.01451,-0.25768 -0.03113,-0.38533 -0.03737,-0.12509 -0.02305,-0.25873 -0.03555,-0.38764 0.00163,-0.08184 -0.03725,-0.15619 -0.03188,-0.23834 -0.00996,-0.0833 -0.0137,-0.18362 -0.08363,-0.24077 -0.06749,-0.03409 -0.16514,-0.0282 -0.21938,0.02925 z m 6.09915,2.01256 c -0.09903,-0.07492 -0.18759,-0.16333 -0.27596,-0.25035 -0.12167,-0.09215 0.09995,-0.14575 0.12835,-0.22459 0.0323,-0.1204 0.03038,-0.24858 0.03853,-0.37223 0.0368,-0.1132 0.05302,-0.23378 0.04489,-0.35298 -0.01062,-0.12781 -0.17729,-0.10084 -0.25026,-0.17327 -0.101,-0.04252 -0.1413,-0.14179 -0.21822,-0.21174 -0.05055,-0.09913 -0.06409,-0.22105 -0.07057,-0.33372 0.00723,-0.09197 -0.06213,-0.19492 0,-0.27596 0.008,-0.01146 0.01748,-0.0271 0.02567,-0.0385 0.02078,-0.02981 0.07037,-0.006 0.10267,-0.01283 0.1034,0.0057 0.2112,-0.0097 0.30803,0.03208 0.24848,0.04299 0.49927,0.04643 0.75086,0.05778 0.15387,-0.0049 0.30191,0.04863 0.45567,0.04489 0.12047,-0.02666 0.17471,0.10398 0.17326,0.19895 -0.06825,0.13421 -0.00926,0.29339 -0.06418,0.42999 -0.04824,0.13811 -0.02925,0.29324 -0.05136,0.43637 -0.00302,0.11264 -0.14594,0.15437 -0.21818,0.07062 -0.07013,-0.07086 -0.18334,-0.08503 -0.23743,-0.1733 -0.06094,-0.12368 0.12882,-0.12382 0.16042,-0.21817 0.03613,-0.09536 0.0243,-0.20138 0.03205,-0.30162 0.02346,-0.12169 -0.10865,-0.12863 -0.19247,-0.14122 -0.11024,-0.0413 -0.26495,-0.06892 -0.32733,0.06415 -0.0392,0.09851 -0.03383,0.20392 -0.04489,0.30808 -0.00273,0.18313 -0.04677,0.36317 -0.05777,0.54545 -0.01054,0.22527 -0.04946,0.44905 -0.06415,0.67384 -0.00211,0.09354 -0.01456,0.24606 -0.14763,0.21819 z m -0.12833,-1.69424 0.06414,-0.0064 0.00642,-0.07701 0.00641,-0.07696 -0.08343,-0.02571 c -0.04419,-0.01307 -0.08281,-0.01935 -0.08339,-0.01925 -0.0132,0.008 -0.02611,0.01661 -0.03855,0.02572 -0.04509,0.03254 -0.03355,0.07902 0.02567,0.14116 0.03341,0.03494 0.04907,0.04173 0.10269,0.03848 h 4e-5 z m -6.15363,1.90573 c -0.07802,-0.02773 -0.17711,-0.14232 -0.25667,-0.14121 -0.18074,-0.01274 -0.15552,-0.18875 -0.0257,-0.25026 0.01714,-0.05337 0.00105,-0.12072 0.00639,-0.1797 0.02524,-0.16212 -0.07705,-0.29262 -0.05771,-0.45566 -0.00909,-0.17869 -0.06304,-0.35273 -0.0706,-0.53262 -0.05075,-0.18553 -0.05133,-0.37625 -0.08345,-0.56476 -0.02138,-0.16907 -0.14363,-0.10942 -0.25029,-0.06419 -8.2e-4,0.07329 -0.00555,0.14491 -0.00642,0.2182 0.04446,0.16782 -0.09056,0.21679 -0.2246,0.23743 -0.14091,-0.01333 -0.21003,0.10745 -0.1797,0.23104 0.06055,0.07209 0.21279,0.05204 0.30805,0.06415 0.2015,-0.04175 0.19337,0.22832 0.08984,0.32091 -0.0708,0.13054 -0.24605,0.18669 -0.29521,0.32086 0.01962,0.17792 -0.09851,0.35576 -0.24384,0.44278 -0.22354,0.0157 -0.39232,-0.17721 -0.47489,-0.36577 -0.09296,-0.02684 -0.18563,-0.05475 -0.27596,-0.08984 -0.14563,-0.03642 -0.35318,-0.28893 -0.15405,-0.38504 0.11178,-0.03079 0.45188,-0.10838 0.30163,-0.26309 -0.08464,-0.14524 -0.24662,-0.14772 -0.39148,-0.10914 -0.14857,-10e-5 -0.31401,0.07227 -0.30803,0.24389 -0.0303,0.15399 -0.02531,0.31994 -0.09622,0.46206 -0.03053,0.17234 -0.22607,0.13202 -0.23746,-0.02565 -0.1506,-0.10972 -0.13053,-0.28708 -0.02566,-0.41717 0.06544,-0.14969 6.3e-4,-0.32398 -0.06414,-0.46204 -0.03926,-0.17969 -0.23742,-0.1858 -0.3787,-0.24388 -0.06931,-0.0269 -0.3344,0.01599 -0.23743,-0.13475 0.15463,-0.05456 0.33939,-0.10366 0.50056,-0.06413 0.169,0.02092 0.31575,0.13646 0.39788,0.28232 0.11351,0.11503 0.30847,0.05481 0.45567,0.05778 0.15868,3.7e-4 0.32091,-0.11143 0.47485,-0.03854 0.04467,0.11591 0.25097,0.30717 0.3145,0.10914 -0.01083,-0.1772 0.14566,-0.27227 0.30804,-0.25035 0.17739,0.01015 0.11181,-0.12542 0.10912,-0.23102 0.01169,-0.19189 0.13547,-0.29255 0.29515,-0.37222 0.05445,-0.01464 0.11193,-0.0097 0.16687,0 0.15363,0.0483 0.31905,0.11681 0.36582,0.2888 0.06232,0.13976 0.06381,0.29793 0.10908,0.44277 0.0364,0.23207 0.08335,0.46413 0.08986,0.69951 0.05667,0.21325 0.0404,0.43866 0.08338,0.65458 0.0272,0.16056 0.04739,0.32106 0.06421,0.48133 -0.01883,0.08567 -0.05584,0.10003 -0.10269,0.08343 z m -1.39258,-0.8535 c 0.03111,-0.0038 0.04834,-0.04193 0.05136,-0.10913 0.00326,-0.07473 0.04237,-0.13567 0.08984,-0.14758 0.03745,-0.0094 0.03424,-0.04906 -0.00641,-0.07702 -0.02363,-0.01628 -0.06591,-0.02609 -0.14121,-0.02566 -0.1187,6.2e-4 -0.19228,0.03137 -0.25668,0.09627 l -0.03852,0.03848 0.05778,0.03854 c 0.04042,0.03188 0.07912,0.06629 0.11552,0.10268 0.05848,0.05969 0.09726,0.0872 0.12832,0.08342 z m 13.56018,1.61748 c -0.11647,-0.0054 -0.23355,-0.02424 -0.3401,-0.05137 -0.21364,0.01329 -0.32087,-0.21092 -0.11552,-0.32086 0.12349,-0.31512 0.31632,0.06505 0.51339,0.03849 0.29519,-0.05744 0.32014,-0.37625 0.36581,-0.61606 0.0166,-0.23759 0.08505,-0.4686 0.15398,-0.69315 0.19761,-0.21962 -0.148,-0.35733 -0.29518,-0.18605 -0.12552,0.13643 -0.3944,0.30382 -0.54548,0.11551 -0.18557,-0.0786 -0.19319,-0.32661 -0.34655,-0.39789 -0.24829,-0.07562 -0.27955,0.22977 -0.41071,0.35935 -0.12064,0.16931 -0.35126,0.18409 -0.53909,0.24388 -0.08809,0.17842 -0.04218,0.4817 -0.2246,0.60326 -0.15318,-0.06249 -0.43397,-0.34955 -0.19894,-0.48133 0.22952,-0.19727 -0.10019,-0.28769 -0.20535,-0.42354 -0.15026,-0.16731 -0.17424,-0.39758 -0.19899,-0.60969 -0.25859,-0.14284 -0.30895,0.16179 -0.34011,0.35298 -0.02011,0.22822 -0.21272,0.16127 -0.34656,0.07701 -0.1956,-0.07927 -0.29324,-0.265 -0.42996,-0.41071 -0.01641,-0.13302 0.00766,-0.27859 0.00641,-0.41717 0.04444,-0.16658 0.24691,-0.08835 0.37223,-0.07697 0.201,0.08405 0.28329,-0.12888 0.12192,-0.25035 -0.10924,-0.13882 -0.45585,-0.0663 -0.42354,-0.28874 0.11167,-0.01308 0.22804,-0.0088 0.34011,0 0.22393,0.06117 0.46436,0.21918 0.48772,0.46848 0.02948,0.21733 0.34245,0.17775 0.5134,0.2246 0.21371,0.0616 0.47125,0.07744 0.51983,-0.19253 0.14568,-0.15297 0.46174,-0.32526 0.62248,-0.11549 0.16314,0.09965 0.24155,0.2747 0.23101,0.46206 -0.03325,0.16112 0.26056,0.16698 0.33371,0.07703 0.10707,-0.17621 0.44171,-0.12422 0.60327,-0.02571 0.17171,0.12675 0.20895,0.35016 0.45566,0.35297 0.36601,0.10963 0.74628,0.17282 1.10379,0.30804 0.2896,0.06314 -0.04308,0.246 -0.11551,0.35298 -0.22053,0.10904 -0.41238,-0.33719 -0.66106,-0.11551 -0.19209,0.14705 -0.17903,0.42645 -0.25026,0.64177 -0.04867,0.27873 -0.03637,0.60017 -0.23741,0.82142 -0.1381,0.14681 -0.32571,0.18218 -0.51985,0.17329 z m -1.39899,-1.94455 c 0.02583,6.1e-4 0.05495,-0.01217 0.10266,-0.03849 0.09,-0.04969 0.15415,-0.13203 0.15401,-0.19895 -5e-5,-0.04365 -0.01117,-0.04662 -0.07698,-0.07702 -0.04051,-0.01866 -0.08655,-0.03871 -0.10272,-0.03848 -0.03714,4e-4 -0.12819,0.07324 -0.1283,0.10269 -1.8e-4,0.01219 -0.01196,0.05881 -0.02571,0.09621 -0.02417,0.06586 -0.02043,0.065 0.01283,0.10913 0.02126,0.02824 0.03835,0.04422 0.06416,0.04491 z m 1.34125,-0.07056 c 0.07644,0.005 0.12187,-0.01886 0.15399,-0.07708 0.03734,-0.06748 0.01196,-0.11927 -0.08342,-0.16035 -0.04179,-0.01809 -0.08359,-0.03275 -0.08986,-0.03212 -0.00627,6.1e-4 -0.04073,0.02106 -0.07701,0.04491 -0.05544,0.03651 -0.06352,0.05417 -0.06415,0.09625 -6.2e-4,0.06476 0.07172,0.12255 0.1604,0.12839 z m -1.83545,-0.01926 c 0.0224,0.0035 0.04279,-0.0082 0.0706,-0.03206 0.03696,-0.03178 0.04863,-0.05731 0.05777,-0.12197 0.00642,-0.04494 0.00542,-0.10306 0,-0.12833 -0.00999,-0.04643 -0.01096,-0.04433 -0.11551,-0.04496 -0.13147,-0.0012 -0.14367,0.01313 -0.1412,0.1348 0.00163,0.07736 0.00239,0.09818 0.04495,0.14118 0.03294,0.03331 0.06103,0.04785 0.08339,0.05134 z M 5.27255,-16.8269 c 0.04099,-0.0096 0.07967,-0.04056 0.08986,-0.08982 0.01344,-0.06524 0.00163,-0.09492 -0.05136,-0.12198 -0.04562,-0.0232 -0.15074,-0.03096 -0.1797,-0.01281 -0.00939,0.0059 -0.02872,0.02115 -0.03849,0.03852 -0.01397,0.02489 -0.01139,0.03687 0.00641,0.05134 0.01245,0.01008 0.02576,0.02459 0.02565,0.03205 -9e-5,0.0075 0.01384,0.03351 0.03208,0.05779 0.03001,0.03982 0.07458,0.05456 0.1155,0.04491 z m 1.89957,-0.24387 c 0.03656,2e-4 0.06748,-0.01248 0.08984,-0.03206 0.03806,-0.03337 0.03676,-0.08224 -0.00641,-0.11557 -0.02777,-0.02138 -0.17905,-0.01942 -0.23101,0 -0.02317,0.0087 -0.03199,0.02033 -0.03208,0.04495 -4.3e-4,0.02892 0.00766,0.04679 0.05773,0.07062 0.04199,0.02001 0.0854,0.03183 0.12197,0.03206 z m -3.52626,-0.98956 c -0.01969,0.01283 -0.04883,0.02403 -0.01949,0.04547 0.03548,0.06213 0.10636,0.08362 0.16931,0.10673 0.11249,0.04874 0.20963,0.1315 0.28209,0.22968 0.01024,0.0684 0.08701,0.1055 0.08669,0.17697 6.1e-4,0.09756 0.00641,0.19749 -0.01738,0.29286 -0.02634,0.08742 -0.09271,0.15442 -0.16974,0.2 -0.05266,0.0414 -0.1384,0.05279 -0.15787,0.12613 -0.01077,0.07036 0.05208,0.12398 0.07405,0.18669 0.04587,0.08662 0.08445,0.1774 0.1337,0.26182 0.05318,0.05913 0.13527,0.0033 0.1628,-0.05383 0.03888,-0.05702 0.07328,-0.11824 0.09259,-0.18429 0.06207,-0.06818 0.11712,-0.14808 0.13942,-0.23864 0.0305,-0.06375 0.0787,-0.1237 0.07588,-0.19836 0,-0.08554 0.04825,-0.1617 0.04524,-0.24773 0.00272,-0.11511 0.00267,-0.23512 -0.03941,-0.34377 -0.0287,-0.06033 -0.08634,-0.09646 -0.12454,-0.15046 -0.0655,-0.0607 -0.13767,-0.1189 -0.22173,-0.15117 -0.05936,-0.0189 -0.09383,-0.0874 -0.16826,-0.07078 -0.10565,-0.0019 -0.21286,-0.01624 -0.3177,8.1e-4 0.00661,-0.01111 -0.03212,0.01881 -0.02565,0.01178 z m -1.40671,-0.09244 c -0.04988,0.05127 -0.06065,0.073 -0.06122,0.12331 -5.8e-4,0.05084 0.00919,0.07099 0.05797,0.1203 0.09,0.09089 0.13403,0.09309 0.28935,0.01445 0.1485,-0.07515 0.1987,-0.08196 0.21201,-0.02872 0.01283,0.05136 0.09833,0.09836 0.17952,0.09869 0.05136,4.4e-4 0.08042,-0.0098 0.12157,-0.04184 0.05162,-0.0402 0.0541,-0.04642 0.05545,-0.13948 8e-4,-0.09511 -4.5e-4,-0.09869 -0.05967,-0.15117 -0.05696,-0.05011 -0.06608,-0.05319 -0.13664,-0.04614 -0.08981,0.009 -0.14366,0.05011 -0.15831,0.12087 -0.01058,0.05133 -0.02862,0.06358 -0.04211,0.02871 C 2.69275,-18.06503 2.67062,-18.07887 2.648,-18.08455 2.6062,-18.0951 2.53528,-18.13971 2.48491,-18.18723 2.46587,-18.20518 2.4325,-18.21367 2.3784,-18.21419 c -0.07304,-6.1e-4 -0.0832,0.0037 -0.1393,0.06142 z m -4.07022,1.82771 c -0.13652,-0.0014 -0.28353,-0.11629 -0.30165,-0.25026 0.0312,-0.15452 0.15954,-0.30588 0.07701,-0.46849 0.05696,-0.20804 -0.15639,-0.28697 -0.30167,-0.16687 -0.08769,0.19948 -0.13211,0.41808 -0.26309,0.59682 -0.16513,0.04676 -0.23709,-0.21703 -0.35296,-0.30803 0.05744,-0.15509 0.22503,-0.29414 0.24383,-0.48773 0.04012,-0.18788 -0.0742,-0.39644 -0.23743,-0.49414 -0.14082,-0.13446 -0.33378,-0.0864 -0.50697,-0.1155 -0.21033,-0.12292 0.15439,-0.16787 0.2503,-0.17329 0.21512,-0.02188 0.43848,0.0065 0.59678,0.16687 0.15796,0.07539 0.14575,0.34853 0.33374,0.37863 0.32617,0.01456 0.64948,-0.05002 0.97545,-0.05777 0.17445,-0.04175 0.44432,0.02078 0.56475,-0.1091 3.8e-4,-0.22742 0.19321,-0.36768 0.37864,-0.45564 0.10244,-0.02849 0.21034,0.09846 0.31445,0.12196 0.19821,0.06319 0.13794,0.30843 0.2567,0.4043 0.33889,0.01834 0.68103,0.01446 1.02035,0.01922 0.06464,-0.0016 0.08368,0.09034 0.12839,0.12835 -0.00746,0.13116 -0.01221,0.26136 -0.03207,0.39146 -0.06538,0.16562 0.01052,0.37883 -0.10913,0.51985 -0.17043,0.04643 -0.31546,-0.1096 -0.48774,-0.12196 -0.19018,-0.08473 -0.3504,-0.26036 -0.35934,-0.47485 -0.11264,-0.18415 -0.2932,0.03274 -0.23107,0.18606 -0.00709,0.06682 0.01446,0.14465 -0.00642,0.20535 -0.10409,0.12492 -0.28638,0.08409 -0.42993,0.10268 -0.20918,-0.0083 -0.41333,0.03687 -0.62253,0.03207 -0.18333,0.01389 -0.37413,-0.01594 -0.55191,0.03208 -0.21182,0.0061 -0.18266,0.21325 -0.21818,0.35943 -0.03759,0.02786 -0.08281,0.03898 -0.1283,0.0385 z m 0.41071,-0.75729 c 0.07041,-0.0014 0.13686,-0.01062 0.20536,-0.01918 0.08846,-0.01462 0.18271,0.03038 0.26949,0 0.20058,-0.03414 0.4012,-0.02609 0.60329,-0.04495 0.05332,8.2e-4 0.09152,-0.03792 0.12829,-0.07061 4.7e-4,-0.14035 1.8e-4,-0.28314 0,-0.42354 -0.00609,-0.0529 0.0157,-0.12283 -0.03207,-0.16046 -0.01532,-0.01052 -0.0325,-0.022 -0.05132,-0.02566 -0.05557,0.01437 -0.11441,0.05095 -0.1412,0.10267 -0.00848,0.07345 0.00368,0.14458 0.00641,0.21821 -0.00144,0.01904 0.00831,0.04867 0,0.06417 -0.04366,0.031 -0.0932,0.05114 -0.14759,0.05138 -0.17444,0.006 -0.34541,0.0188 -0.51983,0.02565 -0.14516,0.0091 -0.2943,-0.01245 -0.43637,0.02565 -0.0551,0.02007 -0.12685,0.01317 -0.16042,0.07062 -0.0481,0.0559 0.02126,0.12254 0.07057,0.14758 0.06539,0.02971 0.13494,0.03987 0.20534,0.03853 z m 2.31662,-0.0513 c 0.0326,4.3e-4 0.04298,-0.01025 0.05778,-0.07062 0.00943,-0.03853 0.02043,-0.08568 0.02566,-0.10268 0.00747,-0.02421 -0.00445,-0.03207 -0.03849,-0.04489 -0.10149,-0.03828 -0.20243,-0.03446 -0.23743,0.01282 -0.01594,0.02145 0.00262,0.08923 0.03208,0.11552 0.05944,0.05314 0.12522,0.08976 0.1604,0.08985 z"
       style="fill:#c5a900;fill-opacity:1;fill-rule:nonzero;stroke:none"
       transform="matrix(1.3333333,0,0,-1.3333333,130.404,86.929333)"
       clip-path="url(#clipPath42)" />
    <path
       id="path43"
       d="M 2.50092,9.7072 C 2.63788,9.69897 2.31569,10.43988 2.31569,10.43988 2.67813,10.06943 4.04677,9.98093 4.04677,9.98093 3.22539,10.34357 2.4044,13.08089 2.50092,15.26271 c 0.08869,2.18985 -0.31379,3.05149 -0.63598,3.37347 -0.4107,0.41071 -1.73107,0.77294 -2.60052,0.8214 -0.4912,0.02403 -0.41071,-0.37044 -0.41071,-0.37044 -0.90968,0.23348 -1.81938,0.32198 -2.23008,0.04825 -0.38668,-0.25772 -0.46717,-1.54587 -0.18523,-1.3204 0.68422,0.54747 1.28015,0.04828 1.69064,-0.54746 0.36225,-0.52342 0.33821,-2.00482 -0.18522,-3.73572 -0.54747,-1.81959 -2.04508,-3.63917 -2.04508,-3.63917 0.81319,0 1.95658,0.72446 1.95658,0.72446 L -2.41841,9.48192 c 0.86143,0.41072 1.54585,1.04668 1.54585,1.04668 l 0.8212,-0.86144 c 0.27373,0.36223 0.82138,0.86144 0.82138,0.86144 0,0 0.68422,-0.72469 1.7309,-0.8214 z"
       style="fill:#ffffff;fill-opacity:1;fill-rule:nonzero;stroke:#c5a900;stroke-width:0.38174;stroke-linecap:butt;stroke-linejoin:miter;stroke-miterlimit:10;stroke-dasharray:none;stroke-opacity:1"
       transform="matrix(1.3333333,0,0,-1.3333333,130.404,86.929333)"
       clip-path="url(#clipPath44)" />
    <path
       id="path45"
       d="m -0.82368,14.94771 c 0,0 -0.45894,-3.37348 -1.32038,-4.33164 m 2.04527,4.41994 c 0,0 -0.17723,-3.41353 -0.77293,-4.50865 m 1.41565,4.37106 c 0,0 0,-3.7357 0.22548,-4.37169 m 0.58771,4.18688 c 0,0 0.18522,-3.13999 0.95814,-4.27516"
       style="fill:none;stroke:#c5a900;stroke-width:0.39821;stroke-linecap:butt;stroke-linejoin:miter;stroke-miterlimit:10;stroke-dasharray:none;stroke-opacity:1"
       transform="matrix(1.3333333,0,0,-1.3333333,130.404,86.929333)"
       clip-path="url(#clipPath46)" />
    <path
       id="path47"
       d="m -1.65329,16.58228 c -0.04025,0.29776 -0.11273,0.53144 -0.21745,0.68444 -0.41071,0.59572 -1.00623,1.09493 -1.69065,0.54746 0,0 0.23349,0.72467 0.73269,0.7487 0.38647,0.02423 1.26393,-0.28975 2.03706,-1.61014 0,0 -0.5717,0.12876 -0.70845,0.008 -0.25792,-0.22547 -0.1532,-0.37847 -0.1532,-0.37847 z"
       style="fill:#c5a900;fill-opacity:1;fill-rule:nonzero;stroke:#c5a900;stroke-width:0.1109;stroke-linecap:butt;stroke-linejoin:miter;stroke-miterlimit:10;stroke-dasharray:none;stroke-opacity:1"
       transform="matrix(1.3333333,0,0,-1.3333333,130.404,86.929333)"
       clip-path="url(#clipPath48)" />
    <path
       id="path49"
       d="m -3.63286,18.70766 c 0.05626,0.18521 0.14499,0.35421 0.25772,0.42669 0.41071,0.27375 1.32041,0.18525 2.23009,-0.04825 0,0 -0.08049,0.39448 0.41069,0.37024 0.86943,-0.04824 2.18983,-0.41069 2.60033,-0.82118 0.09653,-0.10473 0.20945,-0.2577 0.30598,-0.49098 H 2.15591 C 1.95468,18.42592 1.383,18.4097 1.24602,18.39368 1.02856,18.36945 0.8918,18.37766 0.60184,18.30516 0.46509,18.27292 0.25563,18.23268 0.1429,18.14418 c -0.08832,-0.07249 -0.161,-0.33821 -0.29776,-0.33821 -0.21745,0 -0.20124,0.05626 -0.25771,0.12074 -0.07249,0.0885 -0.11274,0.21747 -0.18523,0.20946 -0.22526,-0.04045 -0.5877,0.13675 -1.04646,0.49899 C -2.1032,18.9976 -2.28043,19.0861 -2.87614,19.04585 -3.46385,18.9976 -3.64908,18.6674 -3.64908,18.6674 Z"
       style="fill:#c5a900;fill-opacity:1;fill-rule:nonzero;stroke:#c5a900;stroke-width:0.1109;stroke-linecap:butt;stroke-linejoin:miter;stroke-miterlimit:10;stroke-dasharray:none;stroke-opacity:1"
       transform="matrix(1.3333333,0,0,-1.3333333,130.404,86.929333)"
       clip-path="url(#clipPath50)" />
    <path
       id="path51"
       d="m -0.02592,18.4177 c 0,-0.13392 -0.10858,-0.2425 -0.2425,-0.2425 -0.13391,0 -0.24248,0.10858 -0.24248,0.2425 0,0.1339 0.10857,0.24247 0.24248,0.24247 0.13392,0 0.2425,-0.10857 0.2425,-0.24247 z"
       style="fill:#ffffff;fill-opacity:1;fill-rule:nonzero;stroke:none"
       transform="matrix(1.3333333,0,0,-1.3333333,130.404,86.929333)"
       clip-path="url(#clipPath52)" />
    <path
       id="path53"
       d="M -0.02597,-5.52104 C 6.67741,-0.36523 6.10262,7.1873 6.10262,7.1873 5.92574,7.15195 5.7577,7.13426 5.58084,7.13426 c -1.40614,0 -4.75987,0.80443 -5.5423,1.82617 -0.8381,-0.92482 -4.26533,-1.82617 -5.66261,-1.82617 -0.17688,0 -0.35373,0.01769 -0.52176,0.05304 0,0 -0.58367,-7.55234 6.11977,-12.70834 z"
       style="fill:#ffffff;fill-opacity:1;fill-rule:nonzero;stroke:#c5a900;stroke-width:0.36058;stroke-linecap:butt;stroke-linejoin:miter;stroke-miterlimit:10;stroke-dasharray:none;stroke-opacity:1"
       transform="matrix(1.3333333,0,0,-1.3333333,130.404,86.929333)"
       clip-path="url(#clipPath54)" />
    <path
       id="path55"
       d="M 5.56807,6.63428 C 5.51035,6.63066 5.45238,6.62885 5.39397,6.62885 c -1.27436,0 -4.23435,0.65383 -5.37532,1.6341 -1.19509,-0.90553 -4.20394,-1.6341 -5.45766,-1.6341 -0.05882,0 -0.11691,0.00718 -0.17449,0.01777 -0.00291,-0.28561 0.0119,-0.58168 0.02965,-0.85094 0.06635,-1.00643 0.24288,-2.01644 0.51087,-2.98841 0.84363,-3.05884 2.57028,-5.65831 5.04612,-7.63019 2.47788,1.97352 4.20662,4.57545 5.0521,7.63655 0.26842,0.97174 0.44549,1.98167 0.51246,2.98801 0.01568,0.28173 0.03138,0.62674 0.03037,0.83264 z"
       style="fill:none;stroke:#c5a900;stroke-width:0.39195;stroke-linecap:butt;stroke-linejoin:miter;stroke-miterlimit:10;stroke-dasharray:none;stroke-opacity:1"
       transform="matrix(1.3333333,0,0,-1.3333333,130.404,86.929333)"
       clip-path="url(#clipPath56)" />
    <path
       id="path57"
       d="m -5.64523,8.33574 h 3.74965 v -13.2063 h -3.74965 z"
       style="fill:#c5a900;fill-opacity:1;fill-rule:evenodd;stroke:none"
       transform="matrix(1.3333333,0,0,-1.3333333,130.404,86.929333)"
       clip-path="url(#clipPath58)" />
    <path
       id="path59"
       d="M -1.89558,8.33574 H 1.85403 V -4.87056 H -1.89558 Z"
       style="fill:#ffffff;fill-opacity:1;fill-rule:evenodd;stroke:none"
       transform="matrix(1.3333333,0,0,-1.3333333,130.404,86.929333)"
       clip-path="url(#clipPath60)" />
    <path
       id="path61"
       d="M 1.85403,8.33574 H 5.60368 V -4.87056 H 1.85403 Z"
       style="fill:#c5a900;fill-opacity:1;fill-rule:evenodd;stroke:none"
       transform="matrix(1.3333333,0,0,-1.3333333,130.404,86.929333)"
       clip-path="url(#clipPath62)" />
  </g>
</svg>
