<?xml version="1.0" encoding="UTF-8" standalone="no"?>
<!-- Created with Inkscape (http://www.inkscape.org/) -->

<svg
   version="1.1"
   id="svg1"
   width="265.23599"
   height="173.85867"
   viewBox="0 0 265.23599 173.85867"
   xmlns="http://www.w3.org/2000/svg"
   xmlns:svg="http://www.w3.org/2000/svg">
  <defs
     id="defs1">
    <clipPath
       clipPathUnits="userSpaceOnUse"
       id="clipPath2">
      <path
         d="M -97.80447,-65.19768 V 65.1977 H 97.80449 V -65.19768 Z"
         id="path2" />
    </clipPath>
    <clipPath
       clipPathUnits="userSpaceOnUse"
       id="clipPath4">
      <path
         d="M -97.80447,-65.19768 V 65.1977 H 97.80449 V -65.19768 Z"
         id="path4" />
    </clipPath>
    <clipPath
       clipPathUnits="userSpaceOnUse"
       id="clipPath6">
      <path
         d="M -97.80447,-65.19768 V 65.1977 H 97.80449 V -65.19768 Z"
         id="path6" />
    </clipPath>
    <clipPath
       clipPathUnits="userSpaceOnUse"
       id="clipPath8">
      <path
         d="M -97.80447,-65.19768 V 65.1977 H 97.80449 V -65.19768 Z"
         id="path8" />
    </clipPath>
    <clipPath
       clipPathUnits="userSpaceOnUse"
       id="clipPath10">
      <path
         d="M -97.80447,-65.19768 V 65.1977 H 97.80449 V -65.19768 Z"
         id="path10" />
    </clipPath>
    <clipPath
       clipPathUnits="userSpaceOnUse"
       id="clipPath12">
      <path
         d="M -97.80447,-65.19768 V 65.1977 H 97.80449 V -65.19768 Z"
         id="path12" />
    </clipPath>
    <clipPath
       clipPathUnits="userSpaceOnUse"
       id="clipPath14">
      <path
         d="M -97.80447,-65.19768 V 65.1977 H 97.80449 V -65.19768 Z"
         id="path14" />
    </clipPath>
    <clipPath
       clipPathUnits="userSpaceOnUse"
       id="clipPath16">
      <path
         d="M -97.80447,-65.19768 V 65.1977 H 97.80449 V -65.19768 Z"
         id="path16" />
    </clipPath>
    <clipPath
       clipPathUnits="userSpaceOnUse"
       id="clipPath18">
      <path
         d="M -97.80447,-65.19768 V 65.1977 H 97.80449 V -65.19768 Z"
         id="path18" />
    </clipPath>
    <clipPath
       clipPathUnits="userSpaceOnUse"
       id="clipPath20">
      <path
         d="M -97.80447,-65.19768 V 65.1977 H 97.80449 V -65.19768 Z"
         id="path20" />
    </clipPath>
    <clipPath
       clipPathUnits="userSpaceOnUse"
       id="clipPath22">
      <path
         d="M -97.80447,-65.19768 V 65.1977 H 97.80449 V -65.19768 Z"
         id="path22" />
    </clipPath>
    <clipPath
       clipPathUnits="userSpaceOnUse"
       id="clipPath24">
      <path
         d="M -97.80447,-65.19768 V 65.1977 H 97.80449 V -65.19768 Z"
         id="path24" />
    </clipPath>
    <clipPath
       clipPathUnits="userSpaceOnUse"
       id="clipPath26">
      <path
         d="M -97.80447,-65.19768 V 65.1977 H 97.80449 V -65.19768 Z"
         id="path26" />
    </clipPath>
    <clipPath
       clipPathUnits="userSpaceOnUse"
       id="clipPath28">
      <path
         d="M -97.80447,-65.19768 V 65.1977 H 97.80449 V -65.19768 Z"
         id="path28" />
    </clipPath>
    <clipPath
       clipPathUnits="userSpaceOnUse"
       id="clipPath30">
      <path
         d="M -97.80447,-65.19768 V 65.1977 H 97.80449 V -65.19768 Z"
         id="path30" />
    </clipPath>
    <clipPath
       clipPathUnits="userSpaceOnUse"
       id="clipPath32">
      <path
         d="M -97.80447,-65.19768 V 65.1977 H 97.80449 V -65.19768 Z"
         id="path32" />
    </clipPath>
    <clipPath
       clipPathUnits="userSpaceOnUse"
       id="clipPath34">
      <path
         d="M -97.80447,-65.19768 V 65.1977 H 97.80449 V -65.19768 Z"
         id="path34" />
    </clipPath>
    <clipPath
       clipPathUnits="userSpaceOnUse"
       id="clipPath36">
      <path
         d="M -97.80447,-65.19768 V 65.1977 H 97.80449 V -65.19768 Z"
         id="path36" />
    </clipPath>
    <clipPath
       clipPathUnits="userSpaceOnUse"
       id="clipPath38">
      <path
         d="M -97.80447,-65.19768 V 65.1977 H 97.80449 V -65.19768 Z"
         id="path38" />
    </clipPath>
    <clipPath
       clipPathUnits="userSpaceOnUse"
       id="clipPath40">
      <path
         d="M -97.80447,-65.19768 V 65.1977 H 97.80449 V -65.19768 Z"
         id="path40" />
    </clipPath>
    <clipPath
       clipPathUnits="userSpaceOnUse"
       id="clipPath42">
      <path
         d="M -97.80447,-65.19768 V 65.1977 H 97.80449 V -65.19768 Z"
         id="path42" />
    </clipPath>
    <clipPath
       clipPathUnits="userSpaceOnUse"
       id="clipPath44">
      <path
         d="M -97.80447,-65.19768 V 65.1977 H 97.80449 V -65.19768 Z"
         id="path44" />
    </clipPath>
    <clipPath
       clipPathUnits="userSpaceOnUse"
       id="clipPath46">
      <path
         d="M -97.80447,-65.19768 V 65.1977 H 97.80449 V -65.19768 Z"
         id="path46" />
    </clipPath>
    <clipPath
       clipPathUnits="userSpaceOnUse"
       id="clipPath48">
      <path
         d="M -97.80447,-65.19768 V 65.1977 H 97.80449 V -65.19768 Z"
         id="path48" />
    </clipPath>
    <clipPath
       clipPathUnits="userSpaceOnUse"
       id="clipPath50">
      <path
         d="M -97.80447,-65.19768 V 65.1977 H 97.80449 V -65.19768 Z"
         id="path50" />
    </clipPath>
    <clipPath
       clipPathUnits="userSpaceOnUse"
       id="clipPath52">
      <path
         d="M -97.80447,-65.19768 V 65.1977 H 97.80449 V -65.19768 Z"
         id="path52" />
    </clipPath>
    <clipPath
       clipPathUnits="userSpaceOnUse"
       id="clipPath54">
      <path
         d="M -97.80447,-65.19768 V 65.1977 H 97.80449 V -65.19768 Z"
         id="path54" />
    </clipPath>
    <clipPath
       clipPathUnits="userSpaceOnUse"
       id="clipPath56">
      <path
         d="M -97.80447,-65.19768 V 65.1977 H 97.80449 V -65.19768 Z"
         id="path56" />
    </clipPath>
    <clipPath
       clipPathUnits="userSpaceOnUse"
       id="clipPath58">
      <path
         d="M -97.80447,-65.19768 V 65.1977 H 97.80449 V -65.19768 Z"
         id="path58" />
    </clipPath>
    <clipPath
       clipPathUnits="userSpaceOnUse"
       id="clipPath60">
      <path
         d="M -97.80447,-65.19768 V 65.1977 H 97.80449 V -65.19768 Z"
         id="path60" />
    </clipPath>
    <clipPath
       clipPathUnits="userSpaceOnUse"
       id="clipPath62">
      <path
         d="M -97.80447,-65.19768 V 65.1977 H 97.80449 V -65.19768 Z"
         id="path62" />
    </clipPath>
    <clipPath
       clipPathUnits="userSpaceOnUse"
       id="clipPath64">
      <path
         d="M -97.80447,-65.19768 V 65.1977 H 97.80449 V -65.19768 Z"
         id="path64" />
    </clipPath>
    <clipPath
       clipPathUnits="userSpaceOnUse"
       id="clipPath66">
      <path
         d="M -97.80447,-65.19768 V 65.1977 H 97.80449 V -65.19768 Z"
         id="path66" />
    </clipPath>
    <clipPath
       clipPathUnits="userSpaceOnUse"
       id="clipPath68">
      <path
         d="M -97.80447,-65.19768 V 65.1977 H 97.80449 V -65.19768 Z"
         id="path68" />
    </clipPath>
    <clipPath
       clipPathUnits="userSpaceOnUse"
       id="clipPath70">
      <path
         d="M -97.80447,-65.19768 V 65.1977 H 97.80449 V -65.19768 Z"
         id="path70" />
    </clipPath>
    <clipPath
       clipPathUnits="userSpaceOnUse"
       id="clipPath72">
      <path
         d="M -97.80447,-65.19768 V 65.1977 H 97.80449 V -65.19768 Z"
         id="path72" />
    </clipPath>
    <clipPath
       clipPathUnits="userSpaceOnUse"
       id="clipPath74">
      <path
         d="M -97.80447,-65.19768 V 65.1977 H 97.80449 V -65.19768 Z"
         id="path74" />
    </clipPath>
    <clipPath
       clipPathUnits="userSpaceOnUse"
       id="clipPath76">
      <path
         d="M -97.80447,-65.19768 V 65.1977 H 97.80449 V -65.19768 Z"
         id="path76" />
    </clipPath>
    <clipPath
       clipPathUnits="userSpaceOnUse"
       id="clipPath78">
      <path
         d="M -97.80447,-65.19768 V 65.1977 H 97.80449 V -65.19768 Z"
         id="path78" />
    </clipPath>
    <clipPath
       clipPathUnits="userSpaceOnUse"
       id="clipPath80">
      <path
         d="M -97.80447,-65.19768 V 65.1977 H 97.80449 V -65.19768 Z"
         id="path80" />
    </clipPath>
    <clipPath
       clipPathUnits="userSpaceOnUse"
       id="clipPath82">
      <path
         d="M -97.80447,-65.19768 V 65.1977 H 97.80449 V -65.19768 Z"
         id="path82" />
    </clipPath>
    <clipPath
       clipPathUnits="userSpaceOnUse"
       id="clipPath84">
      <path
         d="M -97.80447,-65.19768 V 65.1977 H 97.80449 V -65.19768 Z"
         id="path84" />
    </clipPath>
    <clipPath
       clipPathUnits="userSpaceOnUse"
       id="clipPath86">
      <path
         d="M -97.80447,-65.19768 V 65.1977 H 97.80449 V -65.19768 Z"
         id="path86" />
    </clipPath>
    <clipPath
       clipPathUnits="userSpaceOnUse"
       id="clipPath88">
      <path
         d="M -97.80447,-65.19768 V 65.1977 H 97.80449 V -65.19768 Z"
         id="path88" />
    </clipPath>
    <clipPath
       clipPathUnits="userSpaceOnUse"
       id="clipPath90">
      <path
         d="M -97.80447,-65.19768 V 65.1977 H 97.80449 V -65.19768 Z"
         id="path90" />
    </clipPath>
    <clipPath
       clipPathUnits="userSpaceOnUse"
       id="clipPath92">
      <path
         d="M -97.80447,-65.19768 V 65.1977 H 97.80449 V -65.19768 Z"
         id="path92" />
    </clipPath>
    <clipPath
       clipPathUnits="userSpaceOnUse"
       id="clipPath94">
      <path
         d="M -97.80447,-65.19768 V 65.1977 H 97.80449 V -65.19768 Z"
         id="path94" />
    </clipPath>
    <clipPath
       clipPathUnits="userSpaceOnUse"
       id="clipPath96">
      <path
         d="M -97.80447,-65.19768 V 65.1977 H 97.80449 V -65.19768 Z"
         id="path96" />
    </clipPath>
    <clipPath
       clipPathUnits="userSpaceOnUse"
       id="clipPath98">
      <path
         d="M -97.80447,-65.19768 V 65.1977 H 97.80449 V -65.19768 Z"
         id="path98" />
    </clipPath>
    <clipPath
       clipPathUnits="userSpaceOnUse"
       id="clipPath100">
      <path
         d="M -97.80447,-65.19768 V 65.1977 H 97.80449 V -65.19768 Z"
         id="path100" />
    </clipPath>
    <clipPath
       clipPathUnits="userSpaceOnUse"
       id="clipPath102">
      <path
         d="M -97.80447,-65.19768 V 65.1977 H 97.80449 V -65.19768 Z"
         id="path102" />
    </clipPath>
    <clipPath
       clipPathUnits="userSpaceOnUse"
       id="clipPath104">
      <path
         d="M -97.80447,-65.19768 V 65.1977 H 97.80449 V -65.19768 Z"
         id="path104" />
    </clipPath>
    <clipPath
       clipPathUnits="userSpaceOnUse"
       id="clipPath106">
      <path
         d="M -97.80447,-65.19768 V 65.1977 H 97.80449 V -65.19768 Z"
         id="path106" />
    </clipPath>
    <clipPath
       clipPathUnits="userSpaceOnUse"
       id="clipPath108">
      <path
         d="M -97.80447,-65.19768 V 65.1977 H 97.80449 V -65.19768 Z"
         id="path108" />
    </clipPath>
    <clipPath
       clipPathUnits="userSpaceOnUse"
       id="clipPath110">
      <path
         d="M -97.80447,-65.19768 V 65.1977 H 97.80449 V -65.19768 Z"
         id="path110" />
    </clipPath>
    <clipPath
       clipPathUnits="userSpaceOnUse"
       id="clipPath112">
      <path
         d="M -97.80447,-65.19768 V 65.1977 H 97.80449 V -65.19768 Z"
         id="path112" />
    </clipPath>
    <clipPath
       clipPathUnits="userSpaceOnUse"
       id="clipPath114">
      <path
         d="M -97.80447,-65.19768 V 65.1977 H 97.80449 V -65.19768 Z"
         id="path114" />
    </clipPath>
    <clipPath
       clipPathUnits="userSpaceOnUse"
       id="clipPath116">
      <path
         d="M -97.80447,-65.19768 V 65.1977 H 97.80449 V -65.19768 Z"
         id="path116" />
    </clipPath>
  </defs>
  <g
     id="g1">
    <path
       id="path1"
       d="M -97.80447,21.73123 V 65.1977 H 97.80449 V 21.73123 Z"
       style="fill:#00843d;fill-opacity:1;fill-rule:nonzero;stroke:none"
       transform="matrix(1.3333333,0,0,-1.3333333,130.404,86.929333)"
       clip-path="url(#clipPath2)" />
    <path
       id="path3"
       d="M -97.80447,-21.73322 V 21.73123 H 97.80449 v -43.46445 z"
       style="fill:#ffffff;fill-opacity:1;fill-rule:nonzero;stroke:none"
       transform="matrix(1.3333333,0,0,-1.3333333,130.404,86.929333)"
       clip-path="url(#clipPath4)" />
    <path
       id="path5"
       d="m -97.80447,-65.19768 v 43.46446 H 97.80449 v -43.46446 z"
       style="fill:#e4002b;fill-opacity:1;fill-rule:nonzero;stroke:none"
       transform="matrix(1.3333333,0,0,-1.3333333,130.404,86.929333)"
       clip-path="url(#clipPath6)" />
    <path
       id="path7"
       d="M -97.80447,-65.19768 -48.90622,0 -97.80447,65.1977 Z"
       style="fill:#003087;fill-opacity:1;fill-rule:nonzero;stroke:none"
       transform="matrix(1.3333333,0,0,-1.3333333,130.404,86.929333)"
       clip-path="url(#clipPath8)" />
    <path
       id="path9"
       d="M -10.6044,13.27739 H 10.60352 V -8.93832 c 0,-7.47539 -9.23095,-1.63971 -10.60396,-5.70345 -1.25896,4.05862 -10.5486,-1.82732 -10.5486,6.14642 0,7.75225 -0.05536,21.77274 -0.05536,21.77274 z"
       style="fill:#dcdcc8;fill-opacity:1;fill-rule:nonzero;stroke:#000000;stroke-width:0.28079;stroke-linecap:butt;stroke-linejoin:miter;stroke-miterlimit:4;stroke-dasharray:none;stroke-opacity:1"
       transform="matrix(1.3333333,0,0,-1.3333333,130.404,86.929333)"
       clip-path="url(#clipPath10)" />
    <path
       id="path11"
       d="m 1.52231,-11.09787 c 0,0 -0.27687,-0.27689 -0.77522,-0.05539 -0.49836,0.2215 -0.55375,14.23091 -0.55375,14.23091 1.10747,1.2182 1.99344,1.60581 1.99344,1.60581 0,0 0.66448,-0.55373 0.66448,-0.55373 -2.49179,-1.27357 -2.2703,-3.10089 -2.0488,-6.25714 0.05536,-1.16286 0.05536,-2.65793 0.33224,-4.09763 0.38761,-1.82731 1.16283,-3.37777 1.2182,-4.5406 0.05538,-0.71986 -0.83059,-0.33223 -0.83059,-0.33223 z"
       style="fill:#73452b;fill-opacity:1;fill-rule:nonzero;stroke:#000000;stroke-width:0.05849;stroke-linecap:butt;stroke-linejoin:miter;stroke-miterlimit:4;stroke-dasharray:none;stroke-opacity:1"
       transform="matrix(1.3333333,0,0,-1.3333333,130.404,86.929333)"
       clip-path="url(#clipPath12)" />
    <path
       id="path13"
       d="m -0.19424,5.0157 h 0.9967 c -0.8306,-8.02908 -0.11075,-12.79118 -0.11075,-15.11687 0,-0.77522 0.44299,-1.05209 0.38761,-1.05209 -0.99672,-1.10747 -1.49506,0.05539 -1.49506,0.05539 z"
       style="fill:#73452b;fill-opacity:1;fill-rule:nonzero;stroke:#000000;stroke-width:0.05849;stroke-linecap:butt;stroke-linejoin:miter;stroke-miterlimit:4;stroke-dasharray:none;stroke-opacity:1"
       transform="matrix(1.3333333,0,0,-1.3333333,130.404,86.929333)"
       clip-path="url(#clipPath14)" />
    <path
       id="path15"
       d="m -1.72144,-11.0859 c -0.94134,-0.443 -1.07536,0.43101 -1.01997,0.54176 2.0488,4.15298 2.93475,13.28954 1.05208,14.28627 l 0.11075,0.88597 c 0.71986,-0.2215 1.38434,-1.16284 1.38434,-1.16284 0.27684,-10.24402 -0.00444,-14.43601 -0.17055,-14.60213 -0.99672,-1.05208 -1.37305,0.13667 -1.42841,0.2474"
       style="fill:#a36629;fill-opacity:1;fill-rule:nonzero;stroke:#000000;stroke-width:0.05849;stroke-linecap:butt;stroke-linejoin:miter;stroke-miterlimit:4;stroke-dasharray:none;stroke-opacity:1"
       transform="matrix(1.3333333,0,0,-1.3333333,130.404,86.929333)"
       clip-path="url(#clipPath16)" />
    <path
       id="path17"
       d="m -1.78899,-10.90497 c -0.16613,0.88597 1.42862,3.12949 1.31787,5.51053"
       style="fill:none;stroke:#000000;stroke-width:0.05849;stroke-linecap:butt;stroke-linejoin:miter;stroke-miterlimit:4;stroke-dasharray:none;stroke-opacity:1"
       transform="matrix(1.3333333,0,0,-1.3333333,130.404,86.929333)"
       clip-path="url(#clipPath18)" />
    <path
       id="path19"
       d="m 0.91321,-7.3325 c 0.49835,-1.38434 0.71985,-2.60254 0.6091,-3.76537"
       style="fill:none;stroke:#000000;stroke-width:0.05849;stroke-linecap:butt;stroke-linejoin:miter;stroke-miterlimit:4;stroke-dasharray:none;stroke-opacity:1"
       transform="matrix(1.3333333,0,0,-1.3333333,130.404,86.929333)"
       clip-path="url(#clipPath20)" />
    <path
       id="path21"
       d="M 3.07275,8.78108 C 3.405,9.1687 3.405,9.1687 4.0141,9.1687 4.12485,9.9993 5.50917,9.9993 5.61992,8.9472 6.72739,9.1687 6.94888,8.50423 6.50589,7.83974 c 1.05209,0.27687 1.99344,0 1.71658,-1.2182 C 10.10516,6.12317 9.3853,4.7942 8.5547,4.51735 8.44395,3.68675 7.66873,3.40988 6.61664,3.74213 5.28767,2.80078 4.51245,3.13301 3.90337,4.07437 2.40828,3.85287 2.29753,4.18512 1.63306,5.0157 0.47021,4.51735 0.24873,4.51735 -0.74797,5.12645 -0.80336,4.35123 -1.08022,4.57272 -1.57858,4.6281 -1.5232,3.63138 -1.91083,3.1884 -2.7968,3.52063 -2.13231,2.13629 -3.84888,1.52719 -4.67947,2.69003 -5.45471,2.63466 -5.51007,2.85616 -5.89769,3.13301 -6.22993,2.02554 -7.44814,2.19168 -7.66963,2.80078 c -1.55045,0.22148 -1.38433,1.05209 -0.11075,1.10745 0.11075,0.88597 0.88597,0.71987 1.38434,0.60912 0.05536,0.55374 0.3876,0.44299 0.66447,0.33225 -0.16612,0.3876 -0.05537,0.6091 0.443,0.71983 -0.71987,0.94136 -0.27687,1.2736 0.44297,1.60583 -0.38762,0.88597 0.27686,0.8306 0.77523,0.88597 -0.05538,0.94135 0.22149,1.10747 1.21821,1.21822 -0.11074,0.33223 0.05536,0.6091 0.6091,0.6091 -0.33224,0.94135 0.11075,1.15663 1.10747,0.99672 0.16612,1.36772 3.10088,0.71985 2.87938,-1.16284 C 2.5744,9.61168 2.85126,9.44556 3.07275,8.78108 Z"
       style="fill:#009a3b;fill-opacity:1;fill-rule:nonzero;stroke:#000000;stroke-width:0.05849;stroke-linecap:butt;stroke-linejoin:miter;stroke-miterlimit:4;stroke-dasharray:none;stroke-opacity:1"
       transform="matrix(1.3333333,0,0,-1.3333333,130.404,86.929333)"
       clip-path="url(#clipPath22)" />
    <path
       id="path23"
       d="m -2.85216,9.27945 c 0.2215,-0.11075 0.49836,0 0.55373,-0.60912 0.44299,0.77523 0.99672,0.33225 0.99672,-0.55372"
       style="fill:none;stroke:#000000;stroke-width:0.05849;stroke-linecap:butt;stroke-linejoin:miter;stroke-miterlimit:4;stroke-dasharray:none;stroke-opacity:1"
       transform="matrix(1.3333333,0,0,-1.3333333,130.404,86.929333)"
       clip-path="url(#clipPath24)" />
    <path
       id="path25"
       d="M 1.74379,9.72243 C 1.52231,9.3902 0.69171,9.3902 0.80246,8.50423 0.52559,8.89183 -0.02814,9.00258 -0.24962,8.61497"
       style="fill:none;stroke:#000000;stroke-width:0.05849;stroke-linecap:butt;stroke-linejoin:miter;stroke-miterlimit:4;stroke-dasharray:none;stroke-opacity:1"
       transform="matrix(1.3333333,0,0,-1.3333333,130.404,86.929333)"
       clip-path="url(#clipPath26)" />
    <path
       id="path27"
       d="M 3.07275,8.78108 C 3.07275,8.55959 3.0174,7.89511 2.7959,7.56287"
       style="fill:none;stroke:#000000;stroke-width:0.05849;stroke-linecap:butt;stroke-linejoin:miter;stroke-miterlimit:4;stroke-dasharray:none;stroke-opacity:1"
       transform="matrix(1.3333333,0,0,-1.3333333,130.404,86.929333)"
       clip-path="url(#clipPath28)" />
    <path
       id="path29"
       d="m 6.50589,7.83974 c 0.05539,-0.05538 -0.77522,0 -1.16283,-0.27687"
       style="fill:none;stroke:#000000;stroke-width:0.05849;stroke-linecap:butt;stroke-linejoin:miter;stroke-miterlimit:4;stroke-dasharray:none;stroke-opacity:1"
       transform="matrix(1.3333333,0,0,-1.3333333,130.404,86.929333)"
       clip-path="url(#clipPath30)" />
    <path
       id="path31"
       d="M 8.5547,4.51735 C 8.33322,4.6281 7.89023,4.90495 7.55798,4.46198 c 0,0.22148 0,0.83059 -0.6091,0.83059"
       style="fill:none;stroke:#000000;stroke-width:0.05849;stroke-linecap:butt;stroke-linejoin:miter;stroke-miterlimit:4;stroke-dasharray:none;stroke-opacity:1"
       transform="matrix(1.3333333,0,0,-1.3333333,130.404,86.929333)"
       clip-path="url(#clipPath32)" />
    <path
       id="path33"
       d="m 6.61664,3.74213 c 0,0.55372 -0.11075,0.71985 -0.2215,0.88597"
       style="fill:none;stroke:#000000;stroke-width:0.05849;stroke-linecap:butt;stroke-linejoin:miter;stroke-miterlimit:4;stroke-dasharray:none;stroke-opacity:1"
       transform="matrix(1.3333333,0,0,-1.3333333,130.404,86.929333)"
       clip-path="url(#clipPath34)" />
    <path
       id="path35"
       d="M 4.78934,4.51735 C 4.34634,4.8496 3.90337,4.35123 3.90337,4.07437"
       style="fill:none;stroke:#000000;stroke-width:0.05849;stroke-linecap:butt;stroke-linejoin:miter;stroke-miterlimit:4;stroke-dasharray:none;stroke-opacity:1"
       transform="matrix(1.3333333,0,0,-1.3333333,130.404,86.929333)"
       clip-path="url(#clipPath36)" />
    <path
       id="path37"
       d="m 1.57768,5.0157 c 0,0.2215 -0.16612,0.66448 0.2215,0.83061"
       style="fill:none;stroke:#000000;stroke-width:0.05849;stroke-linecap:butt;stroke-linejoin:miter;stroke-miterlimit:4;stroke-dasharray:none;stroke-opacity:1"
       transform="matrix(1.3333333,0,0,-1.3333333,130.404,86.929333)"
       clip-path="url(#clipPath38)" />
    <path
       id="path39"
       d="m -4.73485,2.69003 c 0.11075,0.55373 0.49835,0.55373 0.443,0.8306 -0.05539,0.44299 -0.55375,0.8306 -1.16286,0.2215"
       style="fill:none;stroke:#000000;stroke-width:0.05849;stroke-linecap:butt;stroke-linejoin:miter;stroke-miterlimit:4;stroke-dasharray:none;stroke-opacity:1"
       transform="matrix(1.3333333,0,0,-1.3333333,130.404,86.929333)"
       clip-path="url(#clipPath40)" />
    <path
       id="path41"
       d="M -4.29185,3.52063 C -3.95963,3.63138 -3.62738,3.576 -3.51663,3.40988"
       style="fill:none;stroke:#000000;stroke-width:0.05849;stroke-linecap:butt;stroke-linejoin:miter;stroke-miterlimit:4;stroke-dasharray:none;stroke-opacity:1"
       transform="matrix(1.3333333,0,0,-1.3333333,130.404,86.929333)"
       clip-path="url(#clipPath42)" />
    <path
       id="path43"
       d="m -5.23322,5.56943 c 0.2215,0.22149 0.77522,0.16614 1.10747,0"
       style="fill:none;stroke:#000000;stroke-width:0.05849;stroke-linecap:butt;stroke-linejoin:miter;stroke-miterlimit:4;stroke-dasharray:none;stroke-opacity:1"
       transform="matrix(1.3333333,0,0,-1.3333333,130.404,86.929333)"
       clip-path="url(#clipPath44)" />
    <path
       id="path45"
       d="m -4.12575,6.89839 c 0.27687,0 0.77523,0.11075 0.94135,-0.3876 0.6091,0.94133 1.05209,0.83059 1.16284,0.6091"
       style="fill:none;stroke:#000000;stroke-width:0.05849;stroke-linecap:butt;stroke-linejoin:miter;stroke-miterlimit:4;stroke-dasharray:none;stroke-opacity:1"
       transform="matrix(1.3333333,0,0,-1.3333333,130.404,86.929333)"
       clip-path="url(#clipPath46)" />
    <path
       id="path47"
       d="M -0.91411,7.23064 C -0.47112,7.39676 0.3041,6.95377 0.74709,6.17854 0.96857,6.78764 1.30081,6.6769 1.63306,6.73228"
       style="fill:none;stroke:#000000;stroke-width:0.05849;stroke-linecap:butt;stroke-linejoin:miter;stroke-miterlimit:4;stroke-dasharray:none;stroke-opacity:1"
       transform="matrix(1.3333333,0,0,-1.3333333,130.404,86.929333)"
       clip-path="url(#clipPath48)" />
    <path
       id="path49"
       d="M 3.73723,6.17854 C 4.45709,6.51079 4.90007,5.84631 5.12157,5.56943 5.45381,6.01242 5.73067,6.01242 6.06291,6.01242"
       style="fill:none;stroke:#000000;stroke-width:0.05849;stroke-linecap:butt;stroke-linejoin:miter;stroke-miterlimit:4;stroke-dasharray:none;stroke-opacity:1"
       transform="matrix(1.3333333,0,0,-1.3333333,130.404,86.929333)"
       clip-path="url(#clipPath50)" />
    <path
       id="path51"
       d="m -2.9629,4.8496 c 0.1661,0.27685 0.55374,0.33222 0.83059,0.1661 -0.05537,0.49837 0.27687,0.71987 0.49837,0.60912"
       style="fill:none;stroke:#000000;stroke-width:0.05849;stroke-linecap:butt;stroke-linejoin:miter;stroke-miterlimit:4;stroke-dasharray:none;stroke-opacity:1"
       transform="matrix(1.3333333,0,0,-1.3333333,130.404,86.929333)"
       clip-path="url(#clipPath52)" />
    <path
       id="path53"
       d="m -0.77412,16.3887 -1.21822,-0.05537 -0.60909,-1.0902 -0.66448,1.04102 -1.21821,-0.05028 0.55373,1.09618 -0.66447,1.04167 1.27357,0.05538 0.55373,1.09017 0.66449,-1.04078 1.2182,0.05027 -0.55373,-1.09637 z"
       style="fill:#ffd700;fill-opacity:1;fill-rule:nonzero;stroke:#000000;stroke-width:0.20473;stroke-linecap:butt;stroke-linejoin:miter;stroke-miterlimit:4;stroke-dasharray:none;stroke-opacity:1"
       transform="matrix(1.3333333,0,0,-1.3333333,130.404,86.929333)"
       clip-path="url(#clipPath54)" />
    <path
       id="path55"
       d="m -5.9792,15.9847 -1.21822,-0.29857 -0.33223,-1.18012 -0.88597,0.88597 -1.16284,-0.28728 0.33224,1.17945 -0.83061,0.89706 1.16286,0.29348 0.33223,1.18432 0.88597,-0.88597 1.21822,0.28815 -0.38762,-1.18454 z"
       style="fill:#ffd700;fill-opacity:1;fill-rule:nonzero;stroke:#000000;stroke-width:0.20473;stroke-linecap:butt;stroke-linejoin:miter;stroke-miterlimit:4;stroke-dasharray:none;stroke-opacity:1"
       transform="matrix(1.3333333,0,0,-1.3333333,130.404,86.929333)"
       clip-path="url(#clipPath56)" />
    <path
       id="path57"
       d="m -11.01816,14.94899 -1.10747,-0.54753 -0.05537,-1.22949 -1.0521,0.67576 -1.10745,-0.54265 0.11075,1.22861 -1.0521,0.68176 1.10746,0.55373 0.11075,1.22864 0.99672,-0.6749 1.10747,0.54265 -0.05538,-1.22951 z"
       style="fill:#ffd700;fill-opacity:1;fill-rule:nonzero;stroke:#000000;stroke-width:0.20473;stroke-linecap:butt;stroke-linejoin:miter;stroke-miterlimit:4;stroke-dasharray:none;stroke-opacity:1"
       transform="matrix(1.3333333,0,0,-1.3333333,130.404,86.929333)"
       clip-path="url(#clipPath58)" />
    <path
       id="path59"
       d="m 0.8317,16.3887 1.2182,-0.05537 0.55374,-1.0902 0.66447,1.04102 1.21822,-0.05028 -0.55374,1.09618 0.66449,1.04167 L 3.37886,18.4271 2.76974,19.51727 2.10527,18.47649 0.88705,18.52676 1.4408,17.43039 Z"
       style="fill:#ffd700;fill-opacity:1;fill-rule:nonzero;stroke:#000000;stroke-width:0.20473;stroke-linecap:butt;stroke-linejoin:miter;stroke-miterlimit:4;stroke-dasharray:none;stroke-opacity:1"
       transform="matrix(1.3333333,0,0,-1.3333333,130.404,86.929333)"
       clip-path="url(#clipPath60)" />
    <path
       id="path61"
       d="m 6.03677,15.9847 1.16283,-0.29857 0.33225,-1.18012 0.88597,0.88597 1.16284,-0.28728 -0.33225,1.17945 0.88597,0.89706 -1.2182,0.29348 -0.33224,1.18432 -0.88597,-0.88597 -1.16284,0.28815 0.33224,-1.18454 z"
       style="fill:#ffd700;fill-opacity:1;fill-rule:nonzero;stroke:#000000;stroke-width:0.20473;stroke-linecap:butt;stroke-linejoin:miter;stroke-miterlimit:4;stroke-dasharray:none;stroke-opacity:1"
       transform="matrix(1.3333333,0,0,-1.3333333,130.404,86.929333)"
       clip-path="url(#clipPath62)" />
    <path
       id="path63"
       d="m 11.02036,14.94899 1.10746,-0.54753 0.05538,-1.22949 1.05209,0.67576 1.10747,-0.54265 -0.05539,1.22861 0.99672,0.68176 -1.10747,0.55373 -0.05536,1.22864 -1.05209,-0.6749 -1.10747,0.54265 0.11075,-1.22951 z"
       style="fill:#ffd700;fill-opacity:1;fill-rule:nonzero;stroke:#000000;stroke-width:0.20473;stroke-linecap:butt;stroke-linejoin:miter;stroke-miterlimit:4;stroke-dasharray:none;stroke-opacity:1"
       transform="matrix(1.3333333,0,0,-1.3333333,130.404,86.929333)"
       clip-path="url(#clipPath64)" />
    <path
       id="path65"
       d="m 3.7605,-14.30952 0.11073,-1.99344 c 0,0 0.55374,0 1.05211,0.16612 0.44298,0.16612 0.83058,0.49837 0.83058,0.49837 l -0.05536,1.05207 z"
       style="fill:#ffffff;fill-opacity:1;fill-rule:nonzero;stroke:#000000;stroke-width:0.20473;stroke-linecap:butt;stroke-linejoin:miter;stroke-miterlimit:4;stroke-dasharray:none;stroke-opacity:1"
       transform="matrix(1.3333333,0,0,-1.3333333,130.404,86.929333)"
       clip-path="url(#clipPath66)" />
    <path
       id="path67"
       d="m -3.6595,-14.30952 -0.11075,-1.93807 c 0,0 -0.49835,0 -0.99672,0.11075 -0.44299,0.11073 -0.83059,0.38762 -0.83059,0.38762 l -0.55373,1.32895 z"
       style="fill:#ffffff;fill-opacity:1;fill-rule:nonzero;stroke:#000000;stroke-width:0.20473;stroke-linecap:butt;stroke-linejoin:miter;stroke-miterlimit:4;stroke-dasharray:none;stroke-opacity:1"
       transform="matrix(1.3333333,0,0,-1.3333333,130.404,86.929333)"
       clip-path="url(#clipPath68)" />
    <path
       id="path69"
       d="m -12.61513,-8.49535 -1.39915,-1.99343 -1.55046,2.54716 1.16284,1.21822 z"
       style="fill:#ffffff;fill-opacity:1;fill-rule:nonzero;stroke:#000000;stroke-width:0.20473;stroke-linecap:butt;stroke-linejoin:round;stroke-miterlimit:4;stroke-dasharray:none;stroke-opacity:1"
       transform="matrix(1.3333333,0,0,-1.3333333,130.404,86.929333)"
       clip-path="url(#clipPath70)" />
    <path
       id="path71"
       d="m -5.65294,-18.29639 c 0,-1.88269 11.40686,-1.88269 11.40686,0 v 2.65792 c 0,-1.38434 -11.40686,-1.10747 -11.40686,0 z"
       style="fill:#ffffff;fill-opacity:1;fill-rule:nonzero;stroke:#000000;stroke-width:0.20473;stroke-linecap:butt;stroke-linejoin:miter;stroke-miterlimit:4;stroke-dasharray:none;stroke-opacity:1"
       transform="matrix(1.3333333,0,0,-1.3333333,130.404,86.929333)"
       clip-path="url(#clipPath72)" />
    <path
       id="path73"
       d="m -15.84161,-12.14998 c 0.99671,-5.09433 10.18867,-5.20508 10.18867,-5.20508 0,0 0,1.71659 0,1.71659 -0.2215,0.66447 0.16612,0.88597 1.6612,1.10745 0.60911,0.05537 0.33224,0.94134 0.33224,0.94134 0,0 -3.98688,-0.71984 -6.8109,0.38762 -3.82075,1.55045 -4.3745,4.54061 -4.3745,4.54061 0,0 -0.27685,-2.32569 -0.99671,-3.48853 z"
       style="fill:#ffffff;fill-opacity:1;fill-rule:nonzero;stroke:#000000;stroke-width:0.20473;stroke-linecap:butt;stroke-linejoin:miter;stroke-miterlimit:4;stroke-dasharray:none;stroke-opacity:1"
       transform="matrix(1.3333333,0,0,-1.3333333,130.404,86.929333)"
       clip-path="url(#clipPath74)" />
    <path
       id="path75"
       d="m 15.88724,-12.14998 c -0.94136,-5.09433 -10.13332,-5.20508 -10.13332,-5.20508 0,0 0,1.71659 0,1.71659 0.16614,0.66447 -0.22148,0.88597 -1.71655,1.10745 -0.60912,0.05537 -0.27687,0.94134 -0.27687,0.94134 0,0 3.98686,-0.71984 6.8109,0.38762 3.76538,1.55045 4.20837,4.54061 4.20837,4.54061 0,0 0.3876,-2.32569 1.10747,-3.48853 z"
       style="fill:#ffffff;fill-opacity:1;fill-rule:nonzero;stroke:#000000;stroke-width:0.20473;stroke-linecap:butt;stroke-linejoin:miter;stroke-miterlimit:4;stroke-dasharray:none;stroke-opacity:1"
       transform="matrix(1.3333333,0,0,-1.3333333,130.404,86.929333)"
       clip-path="url(#clipPath76)" />
    <path
       id="path77"
       d="m -15.14854,-10.2119 c -2.54717,1.38431 -0.53736,2.82402 -0.31586,6.92163 1.28223,-2.60608 2.54893,-2.69179 2.91151,-4.34257 0.04409,-0.20333 0.07865,-0.5719 -0.033,-0.80712 -1.16283,-0.05539 -1.71568,1.71656 -2.26941,-0.22149 z"
       style="fill:#ffffff;fill-opacity:1;fill-rule:nonzero;stroke:#000000;stroke-width:0.20473;stroke-linecap:butt;stroke-linejoin:miter;stroke-miterlimit:4;stroke-dasharray:none;stroke-opacity:1"
       transform="matrix(1.3333333,0,0,-1.3333333,130.404,86.929333)"
       clip-path="url(#clipPath78)" />
    <path
       id="path79"
       d="m 12.61069,-8.49535 1.39915,-1.99343 1.55046,2.54716 -1.16284,1.21822 z"
       style="fill:#ffffff;fill-opacity:1;fill-rule:nonzero;stroke:#000000;stroke-width:0.20473;stroke-linecap:butt;stroke-linejoin:round;stroke-miterlimit:4;stroke-dasharray:none;stroke-opacity:1"
       transform="matrix(1.3333333,0,0,-1.3333333,130.404,86.929333)"
       clip-path="url(#clipPath80)" />
    <path
       id="path81"
       d="m 15.14655,-10.2119 c 2.54716,1.38431 0.53733,2.82402 0.31585,6.92163 -1.28221,-2.60608 -2.54983,-2.69179 -2.9113,-4.34257 -0.04431,-0.20333 -0.07886,-0.5719 0.0328,-0.80712 1.16282,-0.05539 1.71566,1.71656 2.2694,-0.22149 z"
       style="fill:#ffffff;fill-opacity:1;fill-rule:nonzero;stroke:#000000;stroke-width:0.20473;stroke-linecap:butt;stroke-linejoin:miter;stroke-miterlimit:4;stroke-dasharray:none;stroke-opacity:1"
       transform="matrix(1.3333333,0,0,-1.3333333,130.404,86.929333)"
       clip-path="url(#clipPath82)" />
    <path
       id="path83"
       d="m -13.5713,-12.09459 0.27685,-0.2215 -0.60908,-0.66447 c -0.24389,-0.26669 -0.3028,-0.44234 -0.13314,-0.60402 0.21021,-0.20067 0.35816,-0.13156 0.57611,0.10565 l 0.66448,0.71985 0.2215,-0.22148 -0.66359,-0.77458 c -0.36083,-0.4204 -0.69483,-0.32425 -0.97591,-0.06223 -0.2441,0.22837 -0.38429,0.55905 -0.02502,0.96637 l 0.67045,0.75284 -0.0027,0.0036 z"
       style="fill:#000000;fill-opacity:1;fill-rule:nonzero;stroke:none"
       transform="matrix(1.3333333,0,0,-1.3333333,130.404,86.929333)"
       clip-path="url(#clipPath84)" />
    <path
       id="path85"
       d="m -12.46384,-13.03595 0.27686,-0.16611 -0.05536,-1.32896 0.6091,0.94134 0.27687,-0.16612 -0.88597,-1.4397 -0.33224,0.16611 0.05537,1.32897 -0.6091,-0.94135 -0.27687,0.16612 z"
       style="fill:#000000;fill-opacity:1;fill-rule:nonzero;stroke:none"
       transform="matrix(1.3333333,0,0,-1.3333333,130.404,86.929333)"
       clip-path="url(#clipPath86)" />
    <path
       id="path87"
       d="m -11.96548,-15.36162 0.77522,1.55045 0.27687,-0.16611 -0.71985,-1.49509 z"
       style="fill:#000000;fill-opacity:1;fill-rule:nonzero;stroke:none"
       transform="matrix(1.3333333,0,0,-1.3333333,130.404,86.929333)"
       clip-path="url(#clipPath88)" />
    <path
       id="path89"
       d="m -10.74727,-14.03267 -0.61088,-1.60516 0.61088,-0.22214 c 0.57012,-0.20776 0.83747,0.04318 1.01842,0.52515 0.18252,0.48971 0.103,0.85031 -0.46646,1.07978 z m 0.21973,-0.3885 c 0.57278,-0.2 0.60754,-0.41706 0.45161,-0.81087 -0.15129,-0.37366 -0.29237,-0.51985 -0.83746,-0.23966 z"
       style="fill:#000000;fill-opacity:1;fill-rule:nonzero;stroke:none"
       transform="matrix(1.3333333,0,0,-1.3333333,130.404,86.929333)"
       clip-path="url(#clipPath90)" />
    <path
       id="path91"
       d="m -8.91995,-14.64177 -0.99672,-1.49507 0.38585,-0.11342 0.22236,0.38939 0.66449,-0.16611 0.05627,-0.38939 0.38583,-0.05272 -0.38583,1.77106 z m 0.10985,-0.38849 0.10986,-0.66449 -0.44209,0.05628 z"
       style="fill:#000000;fill-opacity:1;fill-rule:nonzero;stroke:none"
       transform="matrix(1.3333333,0,0,-1.3333333,130.404,86.929333)"
       clip-path="url(#clipPath92)" />
    <path
       id="path93"
       d="m -7.97264,-14.78639 -0.06046,-1.7157 0.65229,-0.01306 c 0.60579,-0.01108 0.77789,0.31163 0.79251,0.82638 0.01483,0.52251 -0.1772,0.83837 -0.79161,0.86959 z m 0.33224,-0.2977 c 0.60666,-0.0024 0.71056,-0.19534 0.68973,-0.61929 -0.02081,-0.40334 -0.10831,-0.58674 -0.71387,-0.49682 z"
       style="fill:#000000;fill-opacity:1;fill-rule:nonzero;stroke:none"
       transform="matrix(1.3333333,0,0,-1.3333333,130.404,86.929333)"
       clip-path="url(#clipPath94)" />
    <path
       id="path95"
       d="m -2.16441,-17.18893 v -1.77129 h 0.38847 v 0.66447 c 0,0 0.33224,-0.01969 0.60823,0.05384 0.21817,0.05626 0.36856,0.19536 0.37389,0.53978 0.00509,0.33667 -0.19138,0.5132 -0.52959,0.5132 h -0.8419 z m 0.38847,-0.2762 0.39117,-0.0051 c 0.32515,0 0.2638,-0.49327 0.00951,-0.49327 h -0.40068 z"
       style="fill:#000000;fill-opacity:1;fill-rule:nonzero;stroke:none"
       transform="matrix(1.3333333,0,0,-1.3333333,130.404,86.929333)"
       clip-path="url(#clipPath96)" />
    <path
       id="path97"
       d="m -0.17099,-17.18893 -0.72073,-1.77129 h 0.3885 l 0.16611,0.44234 h 0.72073 l 0.16611,-0.44234 h 0.38583 l -0.71983,1.77194 h -0.38761 z m 0.16612,-0.38851 0.27596,-0.66447 h -0.49834 z"
       style="fill:#000000;fill-opacity:1;fill-rule:nonzero;stroke:none"
       transform="matrix(1.3333333,0,0,-1.3333333,130.404,86.929333)"
       clip-path="url(#clipPath98)" />
    <path
       id="path99"
       d="M 0.93646,-18.62863 1.8778,-17.4658 H 1.04721 v 0.27687 h 1.32896 v -0.27687 l -0.99671,-1.16283 h 0.99671 v -0.33225 H 0.93646 Z"
       style="fill:#000000;fill-opacity:1;fill-rule:nonzero;stroke:none"
       transform="matrix(1.3333333,0,0,-1.3333333,130.404,86.929333)"
       clip-path="url(#clipPath100)" />
    <path
       id="path101"
       d="m 6.52914,-15.1955 0.33225,0.05536 0.16612,-0.9967 C 7.08643,-16.49167 6.92453,-16.7331 6.6729,-16.82657 6.38562,-16.932 6.0186,-16.8352 5.97542,-16.35834 l 0.27687,0.05538 c 0.06489,-0.28574 0.17917,-0.30988 0.3123,-0.2658 0.10565,0.03545 0.16014,0.20156 0.13069,0.37655 z"
       style="fill:#000000;fill-opacity:1;fill-rule:nonzero;stroke:none"
       transform="matrix(1.3333333,0,0,-1.3333333,130.404,86.929333)"
       clip-path="url(#clipPath102)" />
    <path
       id="path103"
       d="m 7.08289,-15.09605 0.32801,0.06224 0.1513,-0.82972 c 0.0649,-0.35482 0.17652,-0.50523 0.40754,-0.46557 0.28638,0.05028 0.31763,0.21042 0.25694,0.52695 l -0.20422,0.88507 0.33577,0.05028 0.22238,-0.92052 c 0.13068,-0.53824 -0.1506,-0.75197 -0.5287,-0.82198 -0.32869,-0.06157 -0.67821,0.0215 -0.7925,0.55286 z"
       style="fill:#000000;fill-opacity:1;fill-rule:nonzero;stroke:none"
       transform="matrix(1.3333333,0,0,-1.3333333,130.404,86.929333)"
       clip-path="url(#clipPath104)" />
    <path
       id="path105"
       d="m 8.79945,-15.85997 0.27687,0.11075 c 0.13576,-0.24411 0.34774,-0.23192 0.5123,-0.15839 0.22925,0.10123 0.25518,0.30103 0.14176,0.36856 -0.1608,0.0968 -0.54598,-0.04074 -0.75351,0.03546 -0.24829,0.08991 -0.35483,0.23012 -0.34177,0.44475 0.01462,0.25781 0.24231,0.39958 0.48973,0.47666 0.27686,0.0857 0.54929,0.05537 0.72672,-0.28107 L 9.5193,-14.974 c -0.10808,0.18161 -0.2474,0.17297 -0.37033,0.11496 C 9.0453,-14.90845 8.8834,-15.00015 8.97,-15.14722 c 0.07088,-0.12115 0.47754,-0.04229 0.69217,-0.05093 0.2215,-0.0095 0.40135,-0.1575 0.4308,-0.37035 0.0423,-0.29768 -0.06845,-0.45848 -0.41176,-0.5927 -0.42483,-0.16525 -0.80734,0.01993 -0.88176,0.30123 z"
       style="fill:#000000;fill-opacity:1;fill-rule:nonzero;stroke:none"
       transform="matrix(1.3333333,0,0,-1.3333333,130.404,86.929333)"
       clip-path="url(#clipPath106)" />
    <path
       id="path107"
       d="m 10.29453,-14.47565 -0.44298,-0.22149 -0.11075,0.27687 1.21821,0.49835 0.11074,-0.2215 -0.44298,-0.22148 0.49837,-1.21821 -0.27687,-0.16611 z"
       style="fill:#000000;fill-opacity:1;fill-rule:nonzero;stroke:none"
       transform="matrix(1.3333333,0,0,-1.3333333,130.404,86.929333)"
       clip-path="url(#clipPath108)" />
    <path
       id="path109"
       d="m 11.01439,-13.86653 0.27685,0.16611 0.77523,-1.43972 -0.27686,-0.1661 z"
       style="fill:#000000;fill-opacity:1;fill-rule:nonzero;stroke:none"
       transform="matrix(1.3333333,0,0,-1.3333333,130.404,86.929333)"
       clip-path="url(#clipPath110)" />
    <path
       id="path111"
       d="m 12.89708,-13.97728 0.33223,0.11075 c 0.1566,-0.32894 -0.07774,-0.92586 -0.65141,-0.91368 -0.84012,0.01817 -0.93094,0.9429 -0.7987,1.24835 0.22149,0.5123 0.84276,0.50189 1.11788,0.21906 l -0.27687,-0.2215 c -0.17565,0.2248 -0.56503,0.08305 -0.59183,-0.12381 -0.0432,-0.33823 0.10565,-0.65319 0.40843,-0.80203 0.25605,-0.12626 0.6514,0.19114 0.46027,0.48286 z"
       style="fill:#000000;fill-opacity:1;fill-rule:nonzero;stroke:none"
       transform="matrix(1.3333333,0,0,-1.3333333,130.404,86.929333)"
       clip-path="url(#clipPath112)" />
    <path
       id="path113"
       d="m 12.73096,-12.81445 0.27687,0.22149 0.99672,-1.32896 -0.27689,-0.2215 z"
       style="fill:#000000;fill-opacity:1;fill-rule:nonzero;stroke:none"
       transform="matrix(1.3333333,0,0,-1.3333333,130.404,86.929333)"
       clip-path="url(#clipPath114)" />
    <path
       id="path115"
       d="m 13.78305,-11.98386 -0.276,-0.22238 0.60823,-1.66119 0.27599,0.27508 -0.16613,0.33225 0.49837,0.44565 0.33223,-0.16611 0.27864,0.21883 z m 0.10985,-0.38848 0.55463,-0.27599 -0.33225,-0.33223 z"
       style="fill:#000000;fill-opacity:1;fill-rule:nonzero;stroke:none"
       transform="matrix(1.3333333,0,0,-1.3333333,130.404,86.929333)"
       clip-path="url(#clipPath116)" />
  </g>
</svg>
