<?xml version="1.0" encoding="UTF-8" standalone="no"?>
<!-- Created with Inkscape (http://www.inkscape.org/) -->

<svg
   version="1.1"
   id="svg1"
   width="265.23599"
   height="173.85867"
   viewBox="0 0 265.23599 173.85867"
   xmlns="http://www.w3.org/2000/svg"
   xmlns:svg="http://www.w3.org/2000/svg">
  <defs
     id="defs1">
    <clipPath
       clipPathUnits="userSpaceOnUse"
       id="clipPath2">
      <path
         d="M -97.80447,-65.19768 V 65.1977 H 97.80449 V -65.19768 Z"
         id="path2" />
    </clipPath>
    <clipPath
       clipPathUnits="userSpaceOnUse"
       id="clipPath4">
      <path
         d="M -97.80447,-65.19768 V 65.1977 H 97.80449 V -65.19768 Z"
         id="path4" />
    </clipPath>
    <clipPath
       clipPathUnits="userSpaceOnUse"
       id="clipPath6">
      <path
         d="M -97.80447,-65.19768 V 65.1977 H 97.80449 V -65.19768 Z"
         id="path6" />
    </clipPath>
    <clipPath
       clipPathUnits="userSpaceOnUse"
       id="clipPath8">
      <path
         d="M -97.80447,-65.19768 V 65.1977 H 97.80449 V -65.19768 Z"
         id="path8" />
    </clipPath>
    <clipPath
       clipPathUnits="userSpaceOnUse"
       id="clipPath10">
      <path
         d="M -97.80447,-65.19768 V 65.1977 H 97.80449 V -65.19768 Z"
         id="path10" />
    </clipPath>
    <clipPath
       clipPathUnits="userSpaceOnUse"
       id="clipPath12">
      <path
         d="M -97.80447,-65.19768 V 65.1977 H 97.80449 V -65.19768 Z"
         id="path12" />
    </clipPath>
    <clipPath
       clipPathUnits="userSpaceOnUse"
       id="clipPath14">
      <path
         d="M -97.80447,-65.19768 V 65.1977 H 97.80449 V -65.19768 Z"
         id="path14" />
    </clipPath>
    <clipPath
       clipPathUnits="userSpaceOnUse"
       id="clipPath16">
      <path
         d="M -97.80447,-65.19768 V 65.1977 H 97.80449 V -65.19768 Z"
         id="path16" />
    </clipPath>
    <clipPath
       clipPathUnits="userSpaceOnUse"
       id="clipPath18">
      <path
         d="M -97.80447,-65.19768 V 65.1977 H 97.80449 V -65.19768 Z"
         id="path18" />
    </clipPath>
    <clipPath
       clipPathUnits="userSpaceOnUse"
       id="clipPath20">
      <path
         d="M -97.80447,-65.19768 V 65.1977 H 97.80449 V -65.19768 Z"
         id="path20" />
    </clipPath>
    <clipPath
       clipPathUnits="userSpaceOnUse"
       id="clipPath22">
      <path
         d="M -97.80447,-65.19768 V 65.1977 H 97.80449 V -65.19768 Z"
         id="path22" />
    </clipPath>
    <clipPath
       clipPathUnits="userSpaceOnUse"
       id="clipPath24">
      <path
         d="M -97.80447,-65.19768 V 65.1977 H 97.80449 V -65.19768 Z"
         id="path24" />
    </clipPath>
    <clipPath
       clipPathUnits="userSpaceOnUse"
       id="clipPath26">
      <path
         d="M -97.80447,-65.19768 V 65.1977 H 97.80449 V -65.19768 Z"
         id="path26" />
    </clipPath>
    <clipPath
       clipPathUnits="userSpaceOnUse"
       id="clipPath28">
      <path
         d="M -97.80447,-65.19768 V 65.1977 H 97.80449 V -65.19768 Z"
         id="path28" />
    </clipPath>
    <clipPath
       clipPathUnits="userSpaceOnUse"
       id="clipPath30">
      <path
         d="M -97.80447,-65.19768 V 65.1977 H 97.80449 V -65.19768 Z"
         id="path30" />
    </clipPath>
    <clipPath
       clipPathUnits="userSpaceOnUse"
       id="clipPath32">
      <path
         d="M -97.80447,-65.19768 V 65.1977 H 97.80449 V -65.19768 Z"
         id="path32" />
    </clipPath>
    <clipPath
       clipPathUnits="userSpaceOnUse"
       id="clipPath34">
      <path
         d="M -97.80447,-65.19768 V 65.1977 H 97.80449 V -65.19768 Z"
         id="path34" />
    </clipPath>
    <clipPath
       clipPathUnits="userSpaceOnUse"
       id="clipPath36">
      <path
         d="M -97.80447,-65.19768 V 65.1977 H 97.80449 V -65.19768 Z"
         id="path36" />
    </clipPath>
    <clipPath
       clipPathUnits="userSpaceOnUse"
       id="clipPath38">
      <path
         d="M -97.80447,-65.19768 V 65.1977 H 97.80449 V -65.19768 Z"
         id="path38" />
    </clipPath>
  </defs>
  <g
     id="g1">
    <path
       id="path1"
       d="M -97.80447,-65.19768 V 65.1977 H 97.80449 V -65.19768 Z"
       style="fill:#00b140;fill-opacity:1;fill-rule:nonzero;stroke:none"
       transform="matrix(1.3333333,0,0,-1.3333333,130.404,86.929333)"
       clip-path="url(#clipPath2)" />
    <path
       id="path3"
       d="M 97.80449,-65.19768 V 18.62733 H 27.95097 v -83.82501 z"
       style="fill:#ef3340;fill-opacity:1;fill-rule:nonzero;stroke:none"
       transform="matrix(1.3333333,0,0,-1.3333333,130.404,86.929333)"
       clip-path="url(#clipPath4)" />
    <path
       id="path5"
       d="M 97.80449,-65.19768 V 18.62733 H 51.23613 v -83.82501 z"
       style="fill:#000000;fill-opacity:1;fill-rule:nonzero;stroke:none"
       transform="matrix(1.3333333,0,0,-1.3333333,130.404,86.929333)"
       clip-path="url(#clipPath6)" />
    <path
       id="path7"
       d="M 97.80449,-65.19768 V 18.62733 H 74.5213 v -83.82501 z"
       style="fill:#ff8200;fill-opacity:1;fill-rule:nonzero;stroke:none"
       transform="matrix(1.3333333,0,0,-1.3333333,130.404,86.929333)"
       clip-path="url(#clipPath8)" />
    <path
       id="path9"
       d="m 81.04318,49.65729 c 0,0 8.16046,3.19824 8.95114,3.85771 0.35959,-0.39566 -3.27134,-4.41826 -10.31721,-5.90198 6.39876,1.38481 11.86309,5.73712 12.97751,5.60524 0.32354,-0.06595 0.25149,-4.2534 -14.41547,-7.88031 10.13744,2.43995 16.03304,6.92412 15.96117,6.42954 0.07187,-0.09891 -1.00652,-3.52799 -9.88578,-6.19872 2.48049,0.52762 9.20282,4.28635 9.13094,3.56094 0.21564,-0.29673 -6.50668,-8.20994 -18.65728,-5.63824 9.70614,-2.308 15.99699,3.26428 16.89576,3.16538 0.17979,-0.03298 -1.79755,-4.87985 -14.01985,-5.17663 5.85977,0.56049 4.16994,0.03306 4.16994,0.03306 0,0 -3.45115,-2.47289 -7.62108,-0.79146 3.27134,-0.82436 3.63075,-0.85724 3.70263,-1.12094 -0.21565,-0.32964 -2.91179,-0.82436 -5.50001,0.46165 2.08488,-0.79129 3.95431,-0.92333 3.99017,-1.22008 -0.03586,-0.09881 -1.36592,-0.79132 -2.5522,-0.29678 -1.18631,0.49472 -12.11476,6.6604 -12.11476,6.6604 l 18.62143,4.68201 z"
       style="fill:#ff8200;fill-opacity:1;fill-rule:nonzero;stroke:#000000;stroke-width:0.1313;stroke-linecap:round;stroke-linejoin:round;stroke-miterlimit:10;stroke-dasharray:none;stroke-opacity:1"
       transform="matrix(1.3333333,0,0,-1.3333333,130.404,86.929333)"
       clip-path="url(#clipPath10)" />
    <path
       id="path11"
       d="m 59.15166,32.97893 c -1.63747,0 -1.68266,-1.33649 -1.68266,-1.33649 0,0 -0.13515,-0.09651 -0.04499,-0.74429 0.27031,0.44111 0.40566,0.57889 0.40566,0.57889 0.18031,-0.02762 0.93138,-0.23429 2.11822,0.61999 -1.0818,-1.03331 -0.43561,-1.41919 -0.43561,-1.41919 0,0 -0.2554,-0.813 0.57076,-0.97841 -0.25527,0.3308 -0.10504,0.62017 -0.10504,0.62017 0,0 1.1567,0.11015 1.08162,1.40538 0.04516,-1.1711 0.73617,-1.46047 0.73617,-1.46047 0,0 0,-0.6476 0.75107,-0.70285 -0.40547,0.33078 -0.31549,0.84064 -0.31549,0.84064 0,0 0.97656,0.64761 0.15023,1.74997 0.4958,0.26191 0.90145,0.99205 0.90145,0.99205 0,0 -0.67596,0.2619 -0.99144,0.48222 -0.15041,0.28952 -0.01506,1.8741 -0.01506,1.8741 L 61.8709,37.55379 60.714,34.35684 c 0.04499,0.45477 0.07512,-1.37791 -1.56234,-1.37791 z"
       style="fill:#ff8200;fill-opacity:1;fill-rule:nonzero;stroke:#000000;stroke-width:0.1313;stroke-linecap:round;stroke-linejoin:round;stroke-miterlimit:10;stroke-dasharray:none;stroke-opacity:1"
       transform="matrix(1.3333333,0,0,-1.3333333,130.404,86.929333)"
       clip-path="url(#clipPath12)" />
    <path
       id="path13"
       d="m 67.23898,37.58963 c 0.03583,-0.03305 1.22232,-1.25313 2.37259,-1.18703 0.43126,0.32964 -0.89879,1.05501 -0.89879,1.21991 0.4673,-0.39572 2.44448,-1.94528 3.70281,-1.38482 0.50316,0.65945 -0.89877,0.56048 -2.44463,2.34103 1.07839,-0.65942 3.77469,-2.1102 5.03285,-1.54972 0.53937,0.52758 -2.80404,2.1763 -3.91845,3.46215 l -2.87573,1.35179 -3.91846,-2.93458 z"
       style="fill:#ff8200;fill-opacity:1;fill-rule:nonzero;stroke:#000000;stroke-width:0.1313;stroke-linecap:round;stroke-linejoin:round;stroke-miterlimit:10;stroke-dasharray:none;stroke-opacity:1"
       transform="matrix(1.3333333,0,0,-1.3333333,130.404,86.929333)"
       clip-path="url(#clipPath14)" />
    <path
       id="path15"
       d="m 62.81735,47.61304 c 0,0 1.33005,0.72536 6.65044,0.36268 0.57522,-0.06593 3.63077,0.95616 4.60141,1.25292 1.5457,0.26378 6.47064,1.25294 7.80089,2.17616 0.93461,0.09891 -0.25186,-1.58267 -1.43796,-1.97832 -1.25836,-0.52755 -5.82373,-1.97831 -7.4415,-1.7805 1.94132,-0.03296 0.86293,-1.48372 -2.37257,-0.7913 1.54587,-0.79134 0.97065,-0.92322 0.97065,-0.92322 0,0 -2.73199,-0.13188 -3.45097,0.42863 1.83341,-0.62646 1.07839,-0.85727 1.07839,-0.85727 0,0 -1.86925,-0.16485 -2.73217,0.19783 1.33005,-0.36268 0.6471,-0.5935 0.6471,-0.5935 0,0 -1.07839,-0.16485 -1.97714,0.13189 -0.89861,0.29674 -2.26468,2.374 -2.33657,2.374 z"
       style="fill:#ff8200;fill-opacity:1;fill-rule:nonzero;stroke:#000000;stroke-width:0.1313;stroke-linecap:round;stroke-linejoin:round;stroke-miterlimit:10;stroke-dasharray:none;stroke-opacity:1"
       transform="matrix(1.3333333,0,0,-1.3333333,130.404,86.929333)"
       clip-path="url(#clipPath16)" />
    <path
       id="path17"
       d="m 64.95064,36.90619 0.19537,-3.22443 c 0,0 -0.10521,-0.16539 -0.19537,-0.26188 -0.09018,-0.09635 -2.49394,0.3446 -2.16341,-1.33649 0,-0.68904 0.01506,-0.86809 0.52593,-1.25395 -0.13533,0.45476 -0.09016,0.77157 -0.09016,0.77157 0,0 0.67596,-0.37207 1.33704,0.6476 -0.45065,-1.00586 -0.13534,-1.36409 -0.03012,-1.39172 0.10524,-0.1792 -0.18014,-0.99205 0.72115,-0.97824 -0.34543,0.30317 -0.18017,0.74412 -0.18017,0.74412 0,0 0.94646,0.13761 0.61593,1.70854 0.34558,0.31699 0.48074,0.01381 0.48074,0.01381 0,0 0.10506,-0.93698 0.9314,-0.74411 0.37572,-0.19287 -0.06003,-0.70269 -0.06003,-0.70269 0,0 0.60083,-0.0138 0.78117,0.45477 0.18033,0.46838 0.39059,1.30902 -0.60104,1.65346 -0.1201,0.33062 0.39078,0.35824 0.39078,0.35824 0,0 0.63096,-0.19284 0.81111,-0.48221 0.18033,-0.28935 0.12028,0.75777 -0.66092,0.86809 -0.96149,0.02762 -1.02154,0.20665 -1.02154,0.24794 0,0.04143 -0.16527,2.34249 -0.24038,3.00392 z"
       style="fill:#ff8200;fill-opacity:1;fill-rule:nonzero;stroke:#000000;stroke-width:0.1313;stroke-linecap:round;stroke-linejoin:round;stroke-miterlimit:10;stroke-dasharray:none;stroke-opacity:1"
       transform="matrix(1.3333333,0,0,-1.3333333,130.404,86.929333)"
       clip-path="url(#clipPath18)" />
    <path
       id="path19"
       d="m 68.29459,34.1584 c 0.01182,0.14781 -1.64016,2.18797 -1.22107,2.45168 0.41891,-0.07906 1.10598,-1.00701 1.66255,-0.70581 -0.16867,0.36171 -0.66591,0.15799 -1.23055,1.08397 -0.56446,1.04678 -0.64692,2.61821 -2.62408,4.33236 1.28004,-1.81393 4.18376,-2.87718 4.30672,-2.34826 0.12297,0.5289 -2.55684,2.52894 -2.41954,3.01098 0.53292,-0.9899 3.22368,-3.19563 5.2062,-3.01297 0.13588,0.42467 -1.62349,1.28174 -2.07628,2.08208 -1.26641,0.7803 -4.65554,3.45977 -4.72349,4.08119 -1.23325,1.64977 -2.00313,2.14884 -2.36163,2.33885 -0.13857,0.14969 -0.17334,0.2928 -0.20042,0.38378 -0.76559,1.65541 0.24845,2.19295 0.84196,2.27243 0.48846,0.04979 0.63024,-0.01728 0.98176,0.13884 -0.41622,0.14933 -0.83226,0.28901 -1.24832,0.43835 0.5426,-0.36507 1.92859,-0.04365 1.62816,-1.09514 0.60765,0.21205 1.90062,1.62296 -1.46539,1.94138 -1.09542,1.15259 -5.59914,1.815 -6.72644,-3.21553 0.08997,-0.07053 0.13713,-0.12848 0.42358,-0.32469 -1.4222,0.63226 -5.25873,1.11984 -6.64131,1.32472 -3.73508,0.98842 -7.61412,3.37039 -7.987,3.07745 -0.49872,-0.20303 2.25674,-2.5543 2.11352,-2.60635 -2.3892,1.27772 -4.57183,2.18295 -6.60275,3.00671 -1.42874,0.48986 -2.85979,1.63034 -3.01757,1.41338 -0.52584,-0.99907 2.29061,-3.51044 2.8145,-3.80585 0.52405,-0.28259 4.64445,-2.03566 4.5837,-2.05755 -6.2061,2.58366 -7.24661,3.05206 -7.55806,3.34994 -0.54698,0.11301 -1.87945,1.76312 -2.25079,1.65701 -0.20329,-0.18318 0.20444,-2.79049 3.16588,-3.9609 0.48271,-0.32268 6.34796,-2.25254 6.29052,-2.40385 -0.01434,-0.0378 -6.71782,2.53767 -6.97821,2.62974 -1.29243,0.46483 -2.87832,2.09421 -3.17479,1.91098 -0.28299,-0.16626 0.73107,-1.92984 2.03705,-2.48299 0.68454,-0.27707 3.3103,-1.46991 5.676,-2.22909 0.15098,-0.05008 -4.2523,1.53154 -6.36936,2.34295 -0.9599,0.48865 -1.41192,1.09771 -1.55815,0.96666 -0.21626,-0.13101 0.34943,-2.73623 7.15261,-4.20628 0.17924,-0.06998 2.39472,0.48138 2.28524,0.40826 -0.0274,-0.01829 -2.20002,-0.45212 -2.41156,-0.43728 -0.18826,0.02636 -1.37852,-0.12926 -1.40007,-0.18583 -0.0719,-0.17622 0.43126,-1.10905 3.94391,-0.91453 0.44907,0.02476 2.88602,0.81398 2.68128,0.64419 -0.10238,-0.08493 -3.31847,-1.04342 -3.56339,-1.06233 -0.21274,-0.02757 -1.34256,-0.13592 -1.38432,-0.24615 -0.05101,-0.15032 0.83626,-0.81423 2.72264,-0.9206 1.67021,-0.08139 4.84387,0.93604 4.78021,0.87008 -0.06367,-0.06597 -3.05951,-1.00753 -3.13789,-1.0649 -0.10842,-0.05623 -1.20543,-0.11082 -1.24395,-0.1881 -0.0894,-0.19219 1.58248,-1.62618 6.52694,-0.09584 -0.49672,-0.6154 -2.89339,-1.0363 -2.88994,-1.14709 -0.01111,-0.0804 0.52801,-0.55818 1.36593,-0.72915 0.41892,-0.0855 0.99253,-0.06808 1.51647,0.0079 0.94108,0.17281 1.93288,0.51427 3.19302,1.58246 0.15059,-0.33524 -3.14786,-1.86623 -2.99296,-2.01224 0.71521,-0.60832 3.09103,0.07843 3.24661,0.15819 0.15576,0.0799 4.57506,2.36551 4.55981,2.63007 0.06867,-0.33902 -5.69752,-3.21276 -5.63531,-3.33065 0.37015,-0.54171 2.33995,0.02846 2.43405,0.07827 0.09393,0.04966 2.51384,1.24868 2.58015,1.28404 0.06617,0.03535 -2.844,-1.56222 -2.5848,-1.80538 -0.12529,-1.03743 4.54495,0.71599 4.91096,0.93433 0.18302,0.10918 -2.24351,-0.97855 -2.24998,-1.4953 0.78138,-1.2117 3.28338,-0.8273 3.66929,-0.56079 0.19307,0.13333 -0.22709,-0.90015 -0.09176,-0.80628 0.04715,0.0194 0.54422,0.5585 0.7353,0.94866 -0.06096,-0.33852 -0.33522,-0.87187 -0.49528,-1.48381 -0.16025,-0.61192 -0.20615,-1.30245 -0.42607,-2.03606 -0.05039,-0.32223 1.54173,0.63002 1.31051,2.90645 0.13622,-1.18408 -0.50281,-3.39821 -0.33557,-3.51329 0.33449,-0.23016 1.25923,1.10269 1.35262,2.00401 0.27462,-0.45526 0.85093,-1.40554 1.34675,-1.62422 -0.05397,0.68872 0.0095,0.65714 -0.21367,1.33403 0.12868,0.89867 0.14663,2.14243 0.1778,3.54682 1.34727,-2.36718 1.88467,-3.36678 1.50824,-5.17959 0.40062,-0.15322 1.04054,1.26531 0.98894,1.99546 0.51445,-2.02881 2.73503,-2.33298 2.77034,-2.27396 z"
       style="fill:#ff8200;fill-opacity:1;fill-rule:nonzero;stroke:#000000;stroke-width:0.1313;stroke-linecap:round;stroke-linejoin:round;stroke-miterlimit:10;stroke-dasharray:none;stroke-opacity:1"
       transform="matrix(1.3333333,0,0,-1.3333333,130.404,86.929333)"
       clip-path="url(#clipPath20)" />
    <path
       id="path21"
       d="m 45.8544,49.18729 c 0,0 -0.917,-0.63547 -2.05817,-0.59812 0.2853,-1.04664 2.64913,-0.24297 2.64913,-0.24297 0,0 -1.14115,-1.15882 -1.95626,-1.34571 0.48906,-0.37381 2.54725,-0.243 2.89373,-0.05609 0.34633,0.1869 0.95773,0.91584 0.95773,0.91584 0,0 -2.11936,-2.24285 -2.425,-2.22416 -0.04077,-0.26168 2.2212,-0.16822 2.68995,0.22427 0.46857,0.39252 1.65056,0.97191 1.65056,0.97191 0,0 -3.09747,-1.98119 -3.24017,-1.98119 1.16156,-0.28036 3.48468,0.33643 4.97229,1.17751 -2.20087,-1.34573 -2.40449,-1.58868 -3.52538,-2.03726 0.99863,-0.20563 1.50789,-0.82242 4.89075,0.52331 1.9359,0.84107 3.03616,2.37371 3.03616,2.37371 -1.20225,-1.47657 -3.09745,-2.72893 -5.19615,-3.96245 -0.12243,-0.22426 2.24137,-1.14 5.25728,1.73828"
       style="fill:#ff8200;fill-opacity:1;fill-rule:nonzero;stroke:#000000;stroke-width:0.1313;stroke-linecap:round;stroke-linejoin:round;stroke-miterlimit:10;stroke-dasharray:none;stroke-opacity:1"
       transform="matrix(1.3333333,0,0,-1.3333333,130.404,86.929333)"
       clip-path="url(#clipPath22)" />
    <path
       id="path23"
       d="m 62.2382,42.94464 c 0,0 0.2038,-0.87844 1.01885,-1.55138 0.81525,-0.67276 0.87637,-1.32695 0.87637,-1.32695"
       style="fill:#ff8200;fill-opacity:1;fill-rule:nonzero;stroke:#000000;stroke-width:0.1313;stroke-linecap:round;stroke-linejoin:round;stroke-miterlimit:10;stroke-dasharray:none;stroke-opacity:1"
       transform="matrix(1.3333333,0,0,-1.3333333,130.404,86.929333)"
       clip-path="url(#clipPath24)" />
    <path
       id="path25"
       d="m 61.83075,48.66394 c 0,0 0.2852,-0.785 1.12068,-1.28966 0.85593,-0.50464 2.13992,-2.09332 2.24173,-2.37368 0.09859,-0.33933 0.59081,-2.78496 0.55014,-3.04654"
       style="fill:#ff8200;fill-opacity:1;fill-rule:nonzero;stroke:#000000;stroke-width:0.1313;stroke-linecap:round;stroke-linejoin:round;stroke-miterlimit:10;stroke-dasharray:none;stroke-opacity:1"
       transform="matrix(1.3333333,0,0,-1.3333333,130.404,86.929333)"
       clip-path="url(#clipPath26)" />
    <path
       id="path27"
       d="m 56.63441,47.44907 c 0.06112,-0.29906 -1.20242,-1.81299 0.52969,-3.5886 -1.56918,-1.75679 -1.56899,-1.9812 -1.56899,-1.9812 0,0 0.87617,-0.44851 2.44534,0.78505 2.58788,-2.9158 1.7255,-4.25017 1.7255,-4.25017"
       style="fill:#ff8200;fill-opacity:1;fill-rule:nonzero;stroke:#000000;stroke-width:0.1313;stroke-linecap:round;stroke-linejoin:round;stroke-miterlimit:10;stroke-dasharray:none;stroke-opacity:1"
       transform="matrix(1.3333333,0,0,-1.3333333,130.404,86.929333)"
       clip-path="url(#clipPath28)" />
    <path
       id="path29"
       d="m 59.5598,40.47256 c 0,0 -0.2384,0.31321 0.18661,1.48282 0.38269,-0.42285 0.80825,-0.51312 0.99485,-0.68426 0.18641,-0.17116 2.14045,-0.4306 2.26468,-1.62833"
       style="fill:#ff8200;fill-opacity:1;fill-rule:nonzero;stroke:#000000;stroke-width:0.1313;stroke-linecap:round;stroke-linejoin:round;stroke-miterlimit:10;stroke-dasharray:none;stroke-opacity:1"
       transform="matrix(1.3333333,0,0,-1.3333333,130.404,86.929333)"
       clip-path="url(#clipPath30)" />
    <path
       id="path31"
       d="m 61.85692,51.45085 c 0,0.088 -0.39346,0.86235 -1.86135,-0.1056 0.78673,-0.04398 1.5638,-0.45755 1.86135,0.1056 z"
       style="fill:#ff8200;fill-opacity:1;fill-rule:nonzero;stroke:#000000;stroke-width:0.1313;stroke-linecap:round;stroke-linejoin:round;stroke-miterlimit:10;stroke-dasharray:none;stroke-opacity:1"
       transform="matrix(1.3333333,0,0,-1.3333333,130.404,86.929333)"
       clip-path="url(#clipPath32)" />
    <path
       id="path33"
       d="m 75.86656,47.90977 c 0.07187,-0.03295 4.38577,-0.89024 5.82374,-0.4616 -1.8334,-2.2421 -5.50019,-0.72539 -5.50019,-0.72539 1.79735,-0.49457 1.86943,-0.46161 2.44446,-0.9232 0.17979,-0.42864 -3.30719,-0.23081 -4.45764,0.36268 3.19947,-0.92322 3.27136,-0.85726 3.37925,-1.21996 0.14397,-0.49458 -5.2485,0.13189 -5.7158,0.79133 1.43796,-1.02214 2.22882,-1.21997 3.01968,-1.68157 -0.97064,-0.39567 -2.76802,-0.79127 -6.07541,1.35184 4.34973,-3.6269 8.26821,-3.39607 8.87946,-4.05551 -1.50986,-2.04428 -7.3696,1.21991 -10.06574,2.86853 -2.69613,1.64859 5.8956,-3.98966 6.68665,-3.89069 -0.3956,-0.56047 -3.23549,-0.06592 -3.4153,0.19782"
       style="fill:#ff8200;fill-opacity:1;fill-rule:nonzero;stroke:#000000;stroke-width:0.1313;stroke-linecap:round;stroke-linejoin:round;stroke-miterlimit:10;stroke-dasharray:none;stroke-opacity:1"
       transform="matrix(1.3333333,0,0,-1.3333333,130.404,86.929333)"
       clip-path="url(#clipPath34)" />
    <path
       id="path35"
       d="m 76.98097,44.118 c -0.50317,-0.06594 -2.013,-0.06594 -2.22864,-0.03296"
       style="fill:#ff8200;fill-opacity:1;fill-rule:nonzero;stroke:#000000;stroke-width:0.1313;stroke-linecap:round;stroke-linejoin:round;stroke-miterlimit:10;stroke-dasharray:none;stroke-opacity:1"
       transform="matrix(1.3333333,0,0,-1.3333333,130.404,86.929333)"
       clip-path="url(#clipPath36)" />
    <path
       id="path37"
       d="m 44.59099,49.78537 c 0,0 3.28085,-1.58867 4.66647,-1.47655 -0.36674,-0.31773 -0.91706,-0.44858 -0.91706,-0.44858 0.3465,-0.13084 1.30424,-0.59811 2.75117,-0.29904 -0.34651,-0.31773 -0.79482,-0.67286 -0.79482,-0.67286 0,0 1.24312,-0.42989 2.64917,0.24296 -0.42787,-0.48593 -0.67256,-0.84108 -0.67256,-0.84108 l 0.9782,-0.05606"
       style="fill:#ff8200;fill-opacity:1;fill-rule:nonzero;stroke:#000000;stroke-width:0.1313;stroke-linecap:round;stroke-linejoin:round;stroke-miterlimit:10;stroke-dasharray:none;stroke-opacity:1"
       transform="matrix(1.3333333,0,0,-1.3333333,130.404,86.929333)"
       clip-path="url(#clipPath38)" />
  </g>
</svg>
